<svg width="40" height="40" viewBox="0 0 40 40" fill="none" xmlns="http://www.w3.org/2000/svg">
<path d="M6.38097 32.4136H7.07442V34.5456V34.744H7.2729H9.09109H9.28957V34.5456V32.4136H28.8926V34.5456V34.744H29.0911H30.9093H31.1078V34.5456V32.4136H31.8012V32.4138L31.8099 32.4134C33.5235 32.3384 34.7174 31.774 35.4822 30.9555C36.2453 30.1391 36.5623 29.0902 36.5623 28.0802V18.2368H36.5625L36.5621 18.2272C36.4724 16.3771 34.9918 14.8113 33.0426 14.3452V8.39348C33.0426 6.57308 32.2838 5.32285 31.1601 4.53513C30.0461 3.75416 28.5895 3.43799 27.1951 3.43799H10.9436C9.54921 3.43799 8.09259 3.75416 6.97858 4.53513C5.85493 5.32285 5.09615 6.57308 5.09615 8.39348V14.3471C3.11045 14.8432 1.61987 16.375 1.61987 18.2734V28.0802C1.61987 29.5861 2.22341 30.651 3.13148 31.348C4.03155 32.0388 5.21562 32.3572 6.37134 32.4133L6.37132 32.4136H6.38097ZM34.601 27.8817H34.5576V28.0802C34.5576 28.6955 34.4213 29.3527 33.9725 29.8553C33.5274 30.3537 32.7425 30.7359 31.3667 30.7359H30.1934H28.5857H9.55306H7.94529H6.77205C6.02585 30.7359 5.22349 30.618 4.61324 30.2315C4.01844 29.8548 3.58117 29.2075 3.58117 28.0802V18.2368C3.58117 16.9499 4.84948 15.8372 6.46787 15.8372C8.08627 15.8372 9.35458 16.9499 9.35458 18.2368V25.6651C9.35458 26.1712 9.8244 26.5222 10.3352 26.5222H27.8469C28.3578 26.5222 28.8276 26.1712 28.8276 25.6651V18.2368C28.8276 16.9499 30.0959 15.8372 31.7143 15.8372C33.3327 15.8372 34.601 16.9499 34.601 18.2368V27.8817ZM7.05744 8.39348C7.05744 6.96256 7.66205 6.15864 8.43236 5.70075C9.21842 5.23349 10.1974 5.11569 10.9436 5.11569H27.1951C27.943 5.11569 28.9219 5.22481 29.7078 5.68327C30.477 6.13208 31.0813 6.92626 31.0813 8.35689V14.1774C28.748 14.4354 26.8663 16.1095 26.8663 18.2368V18.9531H11.2724V18.2368C11.2724 16.1095 9.39073 14.4354 7.05744 14.1774V8.39348ZM11.2724 20.6674H26.8228V24.8079H11.2724V20.6674Z" fill="#2F2F2F" stroke="#2F2F2F" stroke-width="0.39697"/>
</svg>
