<svg width="40" height="40" viewBox="0 0 40 40" fill="none" xmlns="http://www.w3.org/2000/svg">
<g clip-path="url(#clip0)">
<path d="M40.1987 22.3299H40.199L40.1985 22.3202C40.1319 20.9624 39.6188 19.972 38.8592 19.2984C38.1492 18.6689 37.2371 18.3276 36.3057 18.2076V12.6188C36.3057 11.2687 35.7645 10.3266 34.9581 9.72817C34.1601 9.13598 33.1197 8.89246 32.1286 8.89246H7.74356C6.754 8.89246 5.71337 9.12582 4.9147 9.71346C4.10705 10.3077 3.56647 11.2505 3.56647 12.6188V18.2076C2.63544 18.3275 1.72313 18.6688 1.02732 19.2999C0.281927 19.976 -0.198241 20.9699 -0.198241 22.3299V29.9984C-0.198241 30.8885 0.555442 31.5246 1.49757 31.5246H2.03591H3.55105H5.00559H6.58848H36.4922H37.9468H38.4601C39.4023 31.5246 40.1987 30.8506 40.1987 29.9605V22.3299ZM34.3686 18.1484H33.6105V15.0845C33.6105 14.1945 32.814 13.5204 31.8719 13.5204H24.1993C23.2571 13.5204 22.4607 14.1945 22.4607 15.0845V18.1484H17.5826V15.0845C17.5826 14.1945 16.7861 13.5204 15.844 13.5204H8.17137C7.22924 13.5204 6.43278 14.1945 6.43278 15.0845V18.1484H5.41798V12.8173H5.50354V12.6188C5.50354 11.7844 5.8093 11.3097 6.21826 11.0336C6.64101 10.7482 7.2038 10.6551 7.74356 10.6551H32.1286C32.6684 10.6551 33.2311 10.7482 33.6539 11.0336C34.0629 11.3097 34.3686 11.7844 34.3686 12.6188V18.1484ZM24.3978 15.283H31.6734V18.1484H24.3978V15.283ZM8.45541 15.283H15.7311V18.1484H8.45541V15.283ZM38.1333 24.9941V29.8H36.3211H34.8666H5.00559H3.55105H1.69606V24.9941H38.1333ZM38.1333 22.3299V23.2315H1.69606V22.3299C1.69606 21.2583 2.133 20.6694 2.67605 20.337C3.23464 19.9951 3.92936 19.911 4.44944 19.911H5.26228H8.21415H17.6259H22.4601H31.8719H34.5671H35.3799C35.9222 19.911 36.6161 19.9954 37.1687 20.3366C37.7054 20.668 38.1333 21.2563 38.1333 22.3299Z" fill="#2F2F2F" stroke="#2F2F2F" stroke-width="0.39697"/>
</g>
<defs>
<clipPath id="clip0">
<rect width="40" height="40" fill="white"/>
</clipPath>
</defs>
</svg>
