<svg width="40" height="40" viewBox="0 0 40 40" fill="none" xmlns="http://www.w3.org/2000/svg">
<path d="M20.9735 22.2017H5.22201C4.83288 22.2017 4.51697 22.5168 4.51697 22.9067V36.2349C4.51697 36.6248 4.83288 36.9399 5.22201 36.9399H20.9735C21.3634 36.9399 21.6786 36.6247 21.6786 36.2349V22.9067C21.6786 22.5169 21.3633 22.2017 20.9735 22.2017ZM20.2684 35.5298H5.92706V23.6118H20.2684V35.5298Z" fill="#2F2F2F" stroke="#2F2F2F" stroke-width="0.198485"/>
<path d="M20.9735 22.2017H5.22201C4.83288 22.2017 4.51697 22.5168 4.51697 22.9067V36.2349C4.51697 36.6248 4.83288 36.9399 5.22201 36.9399H20.9735C21.3634 36.9399 21.6786 36.6247 21.6786 36.2349V22.9067C21.6786 22.5169 21.3633 22.2017 20.9735 22.2017ZM20.2684 35.5298H5.92706V23.6118H20.2684V35.5298Z" fill="#2F2F2F" stroke="#2F2F2F" stroke-width="0.198485"/>
<path d="M33.3944 22.2017H20.9748C20.5857 22.2017 20.2698 22.5168 20.2698 22.9067V36.2349C20.2698 36.6248 20.5857 36.94 20.9748 36.94H33.3943C33.7835 36.94 34.0994 36.6249 34.0994 36.2349V22.9067C34.0994 22.9067 34.0994 22.9067 34.0994 22.9067C34.0994 22.5168 33.7835 22.2017 33.3944 22.2017ZM32.6893 35.5298H21.6799V23.6118H32.6893L32.6893 35.5298Z" fill="#2F2F2F" stroke="#2F2F2F" stroke-width="0.198485"/>
<path d="M17.8476 33.1066H8.35284V28.4584H17.8476V33.1066ZM18.5527 27.0483H7.64779C7.25866 27.0483 6.94275 27.3635 6.94275 27.7534V33.8116C6.94275 34.2015 7.25866 34.5167 7.64779 34.5167H18.5527C18.9425 34.5167 19.2577 34.2015 19.2577 33.8116V27.7534C19.2577 27.3635 18.9425 27.0483 18.5527 27.0483Z" fill="#2F2F2F" stroke="#2F2F2F" stroke-width="0.198485"/>
<path d="M15.0144 24.7241V24.6249H14.9152H13.7035H13.6042V24.7241V25.9358V26.035H13.7035H14.9152H15.0144V25.9358V24.7241Z" fill="#2F2F2F" stroke="#2F2F2F" stroke-width="0.198485"/>
<path d="M12.592 24.7241V24.6249H12.4928H11.2811H11.1819V24.7241V25.9358V26.035H11.2811H12.4928H12.592V25.9358V24.7241Z" fill="#2F2F2F" stroke="#2F2F2F" stroke-width="0.198485"/>
<path d="M10.1696 24.7241V24.6249H10.0703H8.85864H8.7594V24.7241V25.9358V26.035H8.85864H10.0703H10.1696V25.9358V24.7241Z" fill="#2F2F2F" stroke="#2F2F2F" stroke-width="0.198485"/>
<path d="M17.4402 24.7241V24.6249H17.341H16.1293H16.03V24.7241V25.9358V26.035H16.1293H17.341H17.4402V25.9358V24.7241Z" fill="#2F2F2F" stroke="#2F2F2F" stroke-width="0.198485"/>
<path d="M33.3414 27.1476V27.0483H33.2421H20.9747H20.8755V27.1476V28.3593V28.4585H20.9747H33.2421H33.3414V28.3593V27.1476Z" fill="#2F2F2F" stroke="#2F2F2F" stroke-width="0.198485"/>
<path d="M28.7979 24.7241V24.6249H28.6987H26.2754H26.1761V24.7241V25.9358V26.035H26.2754H28.6987H28.7979V25.9358V24.7241Z" fill="#2F2F2F" stroke="#2F2F2F" stroke-width="0.198485"/>
<path d="M28.9495 29.7222V29.6229H28.8503H26.427H26.3278V29.7222V30.9338V31.0331H26.427H28.8503H28.9495V30.9338V29.7222Z" fill="#2F2F2F" stroke="#2F2F2F" stroke-width="0.198485"/>
<path d="M21.0226 16.1205L21.0226 16.1206C20.9184 16.4268 20.6659 16.6447 20.3688 16.6447H5.82895C5.53208 16.6447 5.27874 16.427 5.17516 16.1205C5.07247 15.8175 5.12581 15.4677 5.31666 15.2277L7.54719 10.7667V3.95772C7.54719 3.51383 7.84464 3.11804 8.25223 3.11804H17.9455C18.3524 3.11804 18.6506 3.51376 18.6506 3.95772V10.7666L20.8811 15.2276C21.0719 15.4677 21.1253 15.8175 21.0226 16.1205ZM17.1237 4.79747L9.1083 4.79739V11.0966H9.10876L9.10784 11.1061L9.00906 11.0966L9.10784 11.1061L9.10784 11.1062L9.10783 11.1063L9.1078 11.1066L9.10769 11.1076L9.10732 11.1113L9.10584 11.1247C9.10453 11.1362 9.10255 11.1525 9.09981 11.1724C9.09434 11.2122 9.08579 11.267 9.07347 11.3265C9.0612 11.3858 9.04484 11.4515 9.02338 11.5127C9.00407 11.5678 8.97843 11.6257 8.94353 11.672L7.44562 14.9654L18.7535 14.9654L17.2538 11.5996C17.1926 11.5224 17.1586 11.4473 17.1412 11.364C17.1239 11.2812 17.1237 11.1925 17.1237 11.0966V4.79747Z" fill="#2F2F2F" stroke="#2F2F2F" stroke-width="0.198485"/>
<path d="M23.905 16.8484V16.9477H24.0043H25.2159H25.3152V16.8484V16.2426C25.3152 15.6292 25.8142 15.1302 26.4276 15.1302C27.041 15.1302 27.5401 15.6292 27.5401 16.2426V22.9067V23.006H27.6393H28.851H28.9502V22.9067V16.2426V16.2426C28.9501 14.8514 27.8189 13.7201 26.4276 13.7201C25.0363 13.7201 23.905 14.8514 23.905 16.2426V16.8484Z" fill="#2F2F2F" stroke="#2F2F2F" stroke-width="0.198485"/>
<path d="M28.3437 19.8774V19.7782H28.2445H26.427H26.3278V19.8774V21.0891V21.1884H26.427H28.2445H28.3437V21.0891V19.8774Z" fill="#2F2F2F" stroke="#2F2F2F" stroke-width="0.198485"/>
<path d="M12.4931 18.5665H6.4349C6.04578 18.5665 5.72986 18.8817 5.72986 19.2716V22.9065C5.72986 23.2964 6.04578 23.6116 6.4349 23.6116H12.4931C12.8823 23.6116 13.1982 23.2964 13.1982 22.9065V19.2716C13.1982 18.8817 12.8823 18.5665 12.4931 18.5665ZM11.788 22.2015H7.13988V19.9767H11.788V22.2015Z" fill="#2F2F2F" stroke="#2F2F2F" stroke-width="0.198485"/>
<path d="M6.53293 19.8774V19.7782H6.43369H4.61621H4.51697V19.8774V21.0891V21.1884H4.61621H6.43369H6.53293V21.0891V19.8774Z" fill="#2F2F2F" stroke="#2F2F2F" stroke-width="0.198485"/>
<path d="M14.4106 19.8774V19.7782H14.3114H12.4939H12.3947V19.8774V21.0891V21.1884H12.4939H14.3114H14.4106V21.0891V19.8774Z" fill="#2F2F2F" stroke="#2F2F2F" stroke-width="0.198485"/>
<path d="M21.8817 3.11804H33.0899C33.4791 3.11804 33.7949 3.43389 33.7949 3.82309V11.093C33.7949 11.4822 33.4791 11.7981 33.0899 11.7981H21.8817C21.4925 11.7981 21.1767 11.4822 21.1767 11.093V3.82311C21.1767 3.8231 21.1767 3.8231 21.1767 3.82309C21.1766 3.43388 21.4925 3.11804 21.8817 3.11804ZM22.5868 10.388H32.3848V4.52821H22.5867L22.5868 10.388Z" fill="#2F2F2F" stroke="#2F2F2F" stroke-width="0.198485"/>
<path d="M23.2985 5.33752V5.23828H23.3977H24.6094H24.7086V5.33752V7.76081V7.86005H24.6094H23.3977H23.2985V7.76081V5.33752Z" fill="#2F2F2F" stroke="#2F2F2F" stroke-width="0.198485"/>
</svg>
