<svg width="40" height="40" viewBox="0 0 40 40" fill="none" xmlns="http://www.w3.org/2000/svg">
<path d="M2.83043 24.1513H3.84251V35.3516C3.84251 35.9106 4.29557 36.3637 4.85458 36.3637C5.41359 36.3637 5.86665 35.9106 5.86665 35.3516V32.2479H32.3155V35.3516C32.3155 35.9106 32.7686 36.3637 33.3276 36.3637C33.8866 36.3637 34.3397 35.9106 34.3397 35.3516V24.1513H35.3517C35.9108 24.1513 36.3638 23.6983 36.3638 23.1393C36.3638 22.5802 35.9108 22.1272 35.3517 22.1272H30.1161C31.2028 21.0635 31.9492 19.6542 32.1756 18.0789H33.2601C33.8191 18.0789 34.2722 17.6258 34.2722 17.0668C34.2722 16.5078 33.8191 16.0547 33.2601 16.0547H28.0258C28.1381 15.7379 28.1998 15.3974 28.1998 15.0427V13.0185C28.1998 12.4595 27.7467 12.0064 27.1877 12.0064H23.1394C22.5804 12.0064 22.1273 12.4595 22.1273 13.0185V15.0427C22.1273 15.3974 22.189 15.7379 22.3013 16.0547H20.1032V5.86653C20.1032 4.75035 21.0111 3.84239 22.1273 3.84239C23.2435 3.84239 24.1515 4.75035 24.1515 5.86653V6.87861C24.1515 7.43762 24.6045 7.89068 25.1635 7.89068C25.7225 7.89068 26.1756 7.43762 26.1756 6.87861V5.86653C26.1756 3.63417 24.3597 1.81824 22.1273 1.81824C19.8949 1.81824 18.079 3.63417 18.079 5.86653V16.0547H15.8809C15.9932 15.7379 16.0549 15.3974 16.0549 15.0427V13.0185C16.0549 12.4595 15.6018 12.0064 15.0428 12.0064H10.9945C10.4355 12.0064 9.98242 12.4595 9.98242 13.0185V15.0427C9.98242 15.3974 10.0441 15.7379 10.1564 16.0547H4.92205C4.36304 16.0547 3.90998 16.5078 3.90998 17.0668C3.90998 17.6258 4.36304 18.0789 4.92205 18.0789H6.00661C6.233 19.6542 6.97941 21.0635 8.06607 22.1272H2.83043C2.27142 22.1272 1.81836 22.5802 1.81836 23.1393C1.81836 23.6983 2.27142 24.1513 2.83043 24.1513ZM32.3155 24.1513V30.2238H20.1032V24.1513H32.3155ZM24.1515 15.0427V14.0306H26.1756V15.0427C26.1756 15.6006 25.7215 16.0547 25.1635 16.0547C24.6056 16.0547 24.1515 15.6006 24.1515 15.0427ZM12.0066 15.0427V14.0306H14.0307V15.0427C14.0307 15.6006 13.5766 16.0547 13.0186 16.0547C12.4607 16.0547 12.0066 15.6006 12.0066 15.0427ZM8.06001 18.0781H30.1222C29.652 20.3853 27.6073 22.1272 25.1635 22.1272H13.0186C10.5749 22.1272 8.5302 20.3853 8.06001 18.0781ZM18.079 24.1513V30.2238H5.86665V24.1513H18.079Z" fill="#2F2F2F"/>
<path d="M10.8652 28.1385H12.5103C12.9646 28.1385 13.3328 27.7703 13.3328 27.316C13.3328 26.8617 12.9646 26.4935 12.5103 26.4935H10.8652C10.4109 26.4935 10.0427 26.8617 10.0427 27.316C10.0427 27.7703 10.4109 28.1385 10.8652 28.1385Z" fill="#2F2F2F"/>
<path d="M25.6724 28.1385H27.3174C27.7717 28.1385 28.1399 27.7703 28.1399 27.316C28.1399 26.8617 27.7717 26.4935 27.3174 26.4935H25.6724C25.2181 26.4935 24.8499 26.8617 24.8499 27.316C24.8499 27.7703 25.2181 28.1385 25.6724 28.1385Z" fill="#2F2F2F"/>
</svg>
