<svg width="41" height="40" viewBox="0 0 41 40" fill="none" xmlns="http://www.w3.org/2000/svg">
<path d="M23.4323 21.3162V22.7562H20.4828C19.3984 22.7562 18.5265 23.6836 18.5265 24.7613V26.1297C18.5265 27.258 19.4001 28.1349 20.4828 28.1349H20.7317L17.5552 36.7981L17.5552 36.798L17.5542 36.8008C17.3918 37.2881 17.6093 37.8304 18.1454 38.0469C18.2629 38.1044 18.3795 38.1044 18.4726 38.1043H18.4792C18.8597 38.1043 19.2407 37.8859 19.4029 37.4535L19.403 37.4531L22.8488 28.1349H23.4323V38.126C23.4323 38.6695 23.8677 39.1049 24.4112 39.1049C24.9548 39.1049 25.3902 38.6695 25.3902 38.126V28.1349H31.6538L35.0996 37.4531L35.0995 37.4531L35.1015 37.4578C35.2603 37.8282 35.5847 38.1043 36.0235 38.1043H36.03C36.1225 38.1044 36.238 38.1044 36.3546 38.0482C36.8464 37.8798 37.1102 37.2863 36.9484 36.8008L36.9485 36.8008L36.9474 36.7978L33.7109 28.0545C34.5323 27.8089 35.1453 27.0173 35.1453 26.1297V24.7613C35.1453 24.1717 34.9091 23.6246 34.4772 23.2609L35.3221 20.6358C36.2758 20.755 37.1719 20.1952 37.4534 19.2745L38.125 17.0779L38.1254 17.0765L40.0268 10.508L40.0271 10.5069L40.5233 8.71671L40.526 8.70689L40.5267 8.69671C40.5856 7.79956 39.9951 6.92109 39.1094 6.65031L37.8008 6.25024L37.8011 6.24929L37.7872 6.2471C37.0134 6.12563 36.41 6.40433 35.9745 6.79814C35.5434 7.188 35.2741 7.69234 35.1563 8.04225C35.1277 8.10914 35.0637 8.30626 34.9757 8.59011C34.8844 8.88478 34.7647 9.28123 34.6267 9.74419C34.3508 10.6702 34.0013 11.8632 33.658 13.0423C33.3147 14.2214 32.9775 15.3867 32.7261 16.2572C32.6005 16.6925 32.4962 17.054 32.4234 17.3068L32.3391 17.5999L32.3169 17.677L32.3112 17.6968L32.3097 17.7018L32.3097 17.7019C32.3097 17.7021 32.3096 17.7024 32.3095 17.7027C32.0175 18.6591 32.5327 19.6731 33.4231 20.0719L32.5787 22.7562H25.3902V21.3162H28.1254C29.257 21.3162 30.1305 20.3905 30.1305 19.311V17.2096C30.1305 16.078 29.2048 15.2045 28.1254 15.2045H2.56584C1.43424 15.2045 0.56067 16.1302 0.56067 17.2096V19.311C0.56067 20.4426 1.48643 21.3162 2.56584 21.3162H5.30106V38.126C5.30106 38.6695 5.73645 39.1049 6.27996 39.1049C6.82347 39.1049 7.25887 38.6695 7.25887 38.126V21.3162H23.4323ZM33.1641 26.2747H25.3902V24.7627H33.1787C33.1821 24.7689 33.1875 24.7833 33.1875 24.8101V26.1784C33.1875 26.2123 33.1787 26.2459 33.1675 26.2685C33.1663 26.2708 33.1652 26.2728 33.1641 26.2747ZM23.4323 24.7627V26.2747H20.4899C20.4867 26.2613 20.4843 26.245 20.4843 26.2273V24.859C20.4843 24.8251 20.4931 24.7915 20.5044 24.7689C20.5056 24.7666 20.5067 24.7646 20.5077 24.7627H23.4323ZM38.669 8.58755L35.6765 18.7239C35.6628 18.723 35.6466 18.7205 35.6296 18.7153L34.3211 18.3152C34.2887 18.3054 34.2591 18.2871 34.2409 18.2697C34.2389 18.2679 34.2372 18.2661 34.2357 18.2645L37.1873 8.26167L37.1876 8.26074L37.2272 8.13131C37.2341 8.12992 37.2494 8.12892 37.2751 8.13675L38.5836 8.53682C38.616 8.54671 38.6456 8.56495 38.6638 8.58233C38.6658 8.58419 38.6675 8.58593 38.669 8.58755ZM34.2286 18.2885L34.2289 18.2876L34.2286 18.2885ZM38.6761 8.56351L38.6758 8.56443L38.6761 8.56351ZM28.1727 19.311C28.1727 19.3276 28.1634 19.3525 28.1407 19.3753C28.118 19.398 28.0931 19.4073 28.0765 19.4073H2.56584C2.54925 19.4073 2.52435 19.398 2.50162 19.3753C2.4789 19.3525 2.4696 19.3276 2.4696 19.311V17.2096C2.4696 17.193 2.4789 17.1681 2.50162 17.1454C2.52435 17.1227 2.54925 17.1134 2.56584 17.1134H28.0765C28.0931 17.1134 28.118 17.1227 28.1407 17.1454C28.1634 17.1681 28.1727 17.193 28.1727 17.2096V19.311Z" fill="#2F2F2F" stroke="#2F2F2F" stroke-width="0.198485"/>
</svg>
