<svg width="42" height="42" viewBox="0 0 42 42" fill="none" xmlns="http://www.w3.org/2000/svg">
<path d="M36.1137 7.94553C34.8678 7.94553 33.8546 8.95879 33.8546 10.2046C33.8546 11.161 34.4548 11.9714 35.2939 12.3005V16.5819H6.70611V12.3005C7.54523 11.9714 8.14548 11.161 8.14548 10.2046C8.14548 8.95879 7.13222 7.94553 5.88639 7.94553C4.64055 7.94553 3.62729 8.95879 3.62729 10.2046C3.62729 11.161 4.22754 11.9714 5.06667 12.3005V37.5531C5.06667 38.0061 5.43335 38.3728 5.88639 38.3728C6.33943 38.3728 6.70611 38.0061 6.70611 37.5531V36.9334H35.294V37.5531C35.294 38.0061 35.6607 38.3728 36.1137 38.3728C36.5668 38.3728 36.9334 38.0061 36.9334 37.5531V12.3005C37.7725 11.9714 38.3728 11.161 38.3728 10.2046C38.3728 8.95879 37.3595 7.94553 36.1137 7.94553ZM28.297 18.2213H30.9758V30.9758H28.297V18.2213ZM23.9788 18.2213H26.6576V30.9758H23.9788V18.2213ZM19.6607 18.2213H22.3395V30.9758H19.6607V18.2213ZM15.3425 18.2213H18.0213V30.9758H15.3425V18.2213ZM11.0243 18.2213H13.7031V30.9758H11.0243V18.2213ZM9.38485 18.2213V30.9758H6.70611V18.2213H9.38485ZM5.88639 10.8243C5.54515 10.8243 5.26667 10.5465 5.26667 10.2046C5.26667 9.86278 5.54515 9.5849 5.88639 9.5849C6.22761 9.5849 6.50611 9.86284 6.50611 10.2046C6.50611 10.5464 6.22761 10.8243 5.88639 10.8243ZM35.294 35.294H6.70611V32.6152H35.294V35.294ZM35.2939 30.9758H32.6151V18.2213H35.2939V30.9758ZM36.1137 10.8243C35.7724 10.8243 35.4939 10.5465 35.4939 10.2046C35.4939 9.86278 35.7724 9.5849 36.1137 9.5849C36.4549 9.5849 36.7334 9.86284 36.7334 10.2046C36.7334 10.5464 36.4549 10.8243 36.1137 10.8243Z" fill="#2F2F2F" stroke="#2F2F2F" stroke-width="0.2"/>
<path d="M18.8351 13.4876L18.8353 13.4872C18.9792 13.2305 18.9761 12.9153 18.824 12.6616L18.824 12.6615L16.8002 9.28859C16.8918 7.33384 18.311 5.7305 20.1802 5.35952V7.38907C19.3411 7.71806 18.7409 8.52845 18.7409 9.48485C18.7409 10.7307 19.7541 11.7439 21 11.7439C22.2458 11.7439 23.2591 10.7307 23.2591 9.48485C23.2591 8.52844 22.6588 7.71806 21.8197 7.38901V5.35945C23.7218 5.73677 25.1701 7.38596 25.217 9.38485H24.5984C24.1454 9.38485 23.7787 9.75153 23.7787 10.2046V13.0834C23.7787 13.5364 24.1454 13.9031 24.5984 13.9031H27.4772C27.9303 13.9031 28.297 13.5364 28.297 13.0834V10.2046C28.297 9.75153 27.9303 9.38485 27.4772 9.38485H26.8567C26.8031 6.20089 24.1972 3.62729 21 3.62729C17.8609 3.62729 15.3117 6.11308 15.1678 9.21539L13.1001 12.6615L13.1001 12.6616C12.948 12.9153 12.9449 13.2305 13.0888 13.4872L13.0888 13.4872L13.089 13.4876C13.2349 13.7447 13.5085 13.903 13.803 13.903H18.1211C18.4156 13.903 18.6893 13.7446 18.8351 13.4876ZM26.6575 12.2637H25.4181V11.0243H26.6575V12.2637ZM21 8.8652C21.3412 8.8652 21.6197 9.14307 21.6197 9.48492C21.6197 9.82668 21.3412 10.1046 21 10.1046C20.6587 10.1046 20.3802 9.82669 20.3802 9.48485C20.3802 9.14308 20.6587 8.8652 21 8.8652ZM15.2504 12.2637L15.9621 11.0779L16.6738 12.2637H15.2504Z" fill="#2F2F2F" stroke="#2F2F2F" stroke-width="0.2"/>
<rect x="0.5" y="0.5" width="41" height="41" stroke="white"/>
</svg>
