<svg width="40" height="40" viewBox="0 0 40 40" fill="none" xmlns="http://www.w3.org/2000/svg">
<path d="M22.331 19.1407L22.3308 19.1403C22.1435 18.771 22.2902 18.3194 22.6595 18.1318M22.331 19.1407L22.7274 18.2655M22.331 19.1407C22.4638 19.4004 22.7278 19.55 23.0004 19.55C23.1145 19.55 23.2315 19.5237 23.3402 19.4683L23.2722 19.3346M22.331 19.1407L23.3403 19.4683M22.6595 18.1318L22.7274 18.2655M22.6595 18.1318L22.6595 18.1318L22.7274 18.2655M22.6595 18.1318L22.6601 18.1314C22.8142 18.0532 26.3267 16.2687 28.1731 15.6848L28.1736 15.6847C28.571 15.5604 28.9897 15.7799 29.1143 16.1743M22.7274 18.2655L22.7274 18.2655C22.8766 18.1897 26.3837 16.408 28.2184 15.8278C28.5369 15.7282 28.8717 15.904 28.9713 16.2196M29.1143 16.1743C29.1143 16.1743 29.1143 16.1742 29.1143 16.1742L28.9713 16.2196M29.1143 16.1743C29.2395 16.569 29.0205 16.9903 28.6261 17.1155L28.6259 17.1156C26.8999 17.6608 23.3846 19.4457 23.3403 19.4683M29.1143 16.1743C29.1143 16.1744 29.1143 16.1744 29.1143 16.1744L28.9713 16.2196M28.9713 16.2196C29.0715 16.5351 28.8963 16.8723 28.5807 16.9725M23.2722 19.3346C23.3075 19.3166 26.839 17.5227 28.5807 16.9725M23.2722 19.3346C23.1851 19.379 23.0915 19.4 23.0004 19.4C22.782 19.4 22.5708 19.2801 22.4646 19.0724L28.5807 16.9725M23.2722 19.3346L23.3403 19.4683M28.5807 16.9725L23.3403 19.4683" fill="#2F2F2F" stroke="#2F2F2F" stroke-width="0.3"/>
<path d="M28.6261 9.91603L28.6259 9.91609C26.8999 10.4613 23.3846 12.2463 23.3403 12.2688C23.3402 12.2688 23.3402 12.2688 23.3402 12.2689L23.2722 12.1352L28.6261 9.91603ZM28.6261 9.91603C29.0204 9.79085 29.2395 9.36955 29.1143 8.9749M28.6261 9.91603L29.1143 8.9749M29.1143 8.9749C29.1143 8.97492 29.1143 8.97495 29.1143 8.97497L28.9713 9.02012L29.1143 8.9749Z" fill="#2F2F2F" stroke="#2F2F2F" stroke-width="0.3"/>
<path d="M34.7638 35.7112L34.7631 35.7109C34.7632 35.711 34.7596 35.7098 34.7517 35.7072L34.719 35.6969C34.6905 35.688 34.6487 35.6752 34.5941 35.659C34.4849 35.6266 34.3245 35.5808 34.1164 35.5262C33.7002 35.4168 33.0934 35.2718 32.3247 35.1271C30.7872 34.8377 28.6028 34.5495 26.0005 34.5495C23.861 34.5495 21.6854 35.2054 20.7508 35.5257V36.6494H35.0001C35.9096 36.6494 36.65 35.909 36.65 34.9995V11.6006C36.65 11.1867 36.9852 10.8506 37.4 10.8506C37.8147 10.8506 38.1499 11.1867 38.15 11.6006V34.9995C38.15 36.7365 36.737 38.1494 35.0001 38.1494H5.00147C3.26446 38.1494 1.85159 36.7365 1.85159 34.9995V11.6006C1.85159 11.1866 2.18754 10.8507 2.60154 10.8507C3.01553 10.8507 3.35148 11.1866 3.35148 11.6006V34.9995C3.35148 35.909 4.0919 36.6495 5.0014 36.6495H19.2507V35.4892C18.4707 35.1714 16.6796 34.5496 14.6009 34.5496C9.41962 34.5496 5.31147 35.6913 5.20735 35.7203L5.20556 35.7208L5.16578 35.5761L5.20744 35.7202C5.14001 35.7397 5.07079 35.7496 5.0014 35.7496C4.84027 35.7496 4.68122 35.6978 4.54916 35.598L4.5489 35.5978C4.36238 35.4562 4.25138 35.2346 4.25138 34.9995V8.60074C4.25138 8.26637 4.47319 7.97155 4.79516 7.87991M34.7638 35.7112L4.83639 8.02413M34.7638 35.7112C34.9901 35.7863 35.2417 35.7487 35.4383 35.608L35.4388 35.6077M34.7638 35.7112L35.4388 35.6077M4.79516 7.87991C4.79523 7.87989 4.79529 7.87987 4.79536 7.87985L4.83639 8.02413M4.79516 7.87991C4.79509 7.87993 4.79503 7.87994 4.79496 7.87996L4.83639 8.02413M4.79516 7.87991C4.9801 7.82679 9.16206 6.65082 14.6009 6.65082C17.7417 6.65082 20.2253 7.87499 20.3353 7.92929L20.3361 7.92968C20.5901 8.05702 20.7506 8.31648 20.7506 8.60074V31.3001M4.83639 8.02413C5.0116 7.97379 9.1796 6.80082 14.6009 6.80082C17.707 6.80082 20.1656 8.01281 20.2688 8.06378C20.4722 8.16573 20.6006 8.37336 20.6006 8.60074V31.385C20.6491 31.3575 20.6991 31.3292 20.7506 31.3001M20.7506 31.3001C22.6724 30.2155 26.7318 28.0384 30.6502 26.6638M20.7506 31.3001V31.4724C22.6546 30.395 26.813 28.1559 30.8002 26.7703M30.6502 26.6638L22.1186 7.9096C22.1625 7.88172 26.2933 5.31162 30.6502 3.53889V3.70089M30.6502 26.6638V3.70089M30.6502 26.6638C30.6838 26.652 30.7174 26.6403 30.7509 26.6286L30.8002 26.7703M30.6502 26.6638V26.7703H30.8002M30.6502 26.6638L21.1646 7.79818M30.8002 26.7703V3.63994C30.7502 3.66015 30.7002 3.68046 30.6502 3.70089M30.6502 3.70089C28.5238 4.56981 26.454 5.62671 24.8937 6.48022C24.0886 6.9206 23.4198 7.30649 22.9497 7.58396C22.7146 7.72269 22.5292 7.8343 22.4013 7.91204C22.3374 7.9509 22.2878 7.9813 22.2536 8.00238L22.214 8.02688L22.2031 8.03363L22.2001 8.03555L22.1991 8.0362L22.1981 8.03682C21.8465 8.25647 21.3837 8.14935 21.1646 7.79818M21.1646 7.79818C21.1646 7.79824 21.1647 7.7983 21.1647 7.79836L21.2918 7.71878L21.1646 7.79818ZM21.1646 7.79818C20.9449 7.44693 21.0523 6.98441 21.4031 6.76486L21.4039 6.76435L21.407 6.76243C21.5547 6.67088 26.3714 3.68558 31.1363 1.8984L31.1366 1.89827C31.3676 1.81226 31.6256 1.8441 31.8271 1.9846M21.1646 7.79818L21.4827 6.89201L21.4858 6.89009C21.6328 6.79896 26.4388 3.82051 31.189 2.03884C31.3744 1.9698 31.5808 1.9956 31.7415 2.10782M31.8271 1.9846C31.827 1.98456 31.827 1.98453 31.8269 1.98449L31.7415 2.10782M31.8271 1.9846C31.8272 1.98467 31.8273 1.98474 31.8274 1.98481L31.7415 2.10782M31.8271 1.9846C32.0294 2.12473 32.1501 2.35494 32.1501 2.60097V27.1999C32.1501 27.5232 31.9437 27.8089 31.6374 27.9115L31.6372 27.9115C26.4068 29.6548 20.5108 33.1685 20.3879 33.2418L20.387 33.2423M31.7415 2.10782C31.9035 2.21996 32.0001 2.40417 32.0001 2.60097V27.1999C32.0001 27.4585 31.8351 27.687 31.5898 27.7692C26.343 29.5179 20.4353 33.0389 20.3112 33.1129L20.3097 33.1138M20.387 33.2423L20.3097 33.1138M20.387 33.2423L20.3864 33.2427L20.3097 33.1138M20.387 33.2423C20.1553 33.3818 19.8658 33.3856 19.6307 33.252M20.3097 33.1138C20.1243 33.2254 19.8927 33.2284 19.7049 33.1216M19.7049 33.1216L19.6311 33.2522C19.631 33.2521 19.6308 33.252 19.6307 33.252M19.7049 33.1216C19.5171 33.0154 19.4007 32.8156 19.4007 32.5996V8.98948M19.7049 33.1216L19.6307 33.252M19.6307 33.252C19.3959 33.1191 19.2507 32.8694 19.2507 32.5996V9.08987M19.4007 8.98948L19.3429 9.12787C19.3139 9.11576 19.2832 9.10308 19.2507 9.08987M19.4007 8.98948C18.6645 8.68166 16.7885 8.00072 14.6009 8.00072C10.3382 8.00072 6.79949 8.77046 5.60135 9.06506M19.4007 8.98948H19.2507V9.08987M19.2507 9.08987C18.4671 8.77112 16.6742 8.15072 14.6009 8.15072C10.4828 8.15072 7.04229 8.87212 5.75135 9.18294M5.60135 9.06506H5.75135V9.18294M5.60135 9.06506V34.0732C5.64938 34.0619 5.69939 34.0503 5.75135 34.0383M5.60135 9.06506L5.63716 9.21072C5.67312 9.20188 5.71119 9.19261 5.75135 9.18294M5.75135 9.18294V34.0383M5.75135 34.0383C7.30938 33.6802 10.6179 33.0496 14.6009 33.0496C17.1486 33.0496 19.2631 33.8548 20.0292 34.1876M5.75135 34.0383V34.1923C7.28794 33.8372 10.6037 33.1996 14.6009 33.1996C17.1832 33.1996 19.3179 34.0371 20.0241 34.3491M20.0292 34.1876L33.1575 8.24371C33.0975 8.57008 33.3129 8.88268 33.6387 8.94265C33.9453 8.99904 34.2021 9.04882 34.4001 9.08847M20.0292 34.1876C20.888 33.877 23.4188 33.0496 26.0004 33.0496C29.8616 33.0496 32.8036 33.643 34.2501 34.0086M20.0292 34.1876C20.0486 34.196 20.0671 34.2041 20.0847 34.2119L20.0241 34.3491M20.0292 34.1876C20.0094 34.1948 19.9905 34.2017 19.9725 34.2083L20.0241 34.3491M20.0292 34.1876L34.2501 9.2116M20.0241 34.3491C20.8185 34.0581 23.3864 33.1996 26.0004 33.1996C29.8797 33.1996 32.8263 33.8009 34.2501 34.1633V34.0086M34.2501 34.0086C34.302 34.0217 34.352 34.0346 34.4001 34.0471V9.08847M34.2501 34.0086V9.2116M34.4001 9.08847H34.2501V9.2116M34.4001 9.08847L34.3706 9.23555C34.3326 9.22794 34.2924 9.21994 34.2501 9.2116M34.2501 9.2116C34.0729 9.17667 33.8585 9.13558 33.6116 9.09018L33.6115 9.09017C33.2041 9.01518 32.9351 8.6243 33.01 8.2166L33.01 8.21647C33.0851 7.80997 33.4769 7.53999 33.8831 7.61499L34.2501 9.2116ZM35.4388 35.6077C35.6346 35.4667 35.75 35.2401 35.75 34.9994M35.4388 35.6077L35.75 34.9994M35.75 34.9994V8.60074M35.75 34.9994V8.60074M35.75 8.60074C35.75 8.24925 35.5064 7.94448 35.1625 7.86865M35.75 8.60074L35.1625 7.86865M35.1625 7.86865L35.1625 7.86864L35.1614 7.86839L35.1571 7.86745L35.1405 7.8638L35.0756 7.84975C35.0186 7.83752 34.9342 7.81969 34.8247 7.79724C34.6057 7.75236 34.2862 7.68902 33.8831 7.61501L35.1625 7.86865Z" fill="#2F2F2F" stroke="#2F2F2F" stroke-width="0.3"/>
<path d="M22.3308 15.5406L22.331 15.541L23.2722 15.7349L23.3402 15.8686C23.3402 15.8686 23.3403 15.8686 23.3403 15.8685C23.3846 15.846 26.8999 14.061 28.6259 13.5158L28.6261 13.5158C29.0205 13.3906 29.2395 12.9693 29.1143 12.5746C28.9897 12.1802 28.571 11.9606 28.1736 12.0849L28.1731 12.0851C26.3266 12.669 22.8142 14.4535 22.6601 14.5317L22.6595 14.532C22.6595 14.532 22.6595 14.532 22.6595 14.532C22.2902 14.7196 22.1435 15.1712 22.3308 15.5406Z" fill="#2F2F2F" stroke="#2F2F2F" stroke-width="0.3"/>
<path d="M22.331 22.7406L22.3308 22.7402C22.1435 22.3708 22.2902 21.9192 22.6595 21.7316C22.6595 21.7316 22.6595 21.7316 22.6595 21.7316L22.6601 21.7313C22.8143 21.653 26.3267 19.8686 28.1731 19.2847L28.1736 19.2845C28.571 19.1602 28.9897 19.3798 29.1143 19.7742C29.2395 20.1688 29.0205 20.5902 28.6261 20.7154L28.6259 20.7154C26.8999 21.2606 23.3846 23.0456 23.3403 23.0681L22.331 22.7406ZM22.331 22.7406C22.4638 23.0003 22.7278 23.1499 23.0004 23.1499M22.331 22.7406L23.0004 23.1499M23.0004 23.1499C23.1145 23.1499 23.2315 23.1236 23.3402 23.0682L23.0004 23.1499Z" fill="#2F2F2F" stroke="#2F2F2F" stroke-width="0.3"/>
<path d="M8.40645 13.2759L8.40638 13.2759C8.00668 13.3831 7.76897 13.7941 7.87617 14.1945L7.8762 14.1946C7.96624 14.53 8.26931 14.7503 8.60007 14.7503C8.66459 14.7503 8.72962 14.742 8.79434 14.725L8.79435 14.725L8.79695 14.7242C8.79679 14.7243 8.79696 14.7242 8.79753 14.7241C8.7989 14.7237 8.8026 14.7227 8.8092 14.721L8.84613 14.7116C8.87817 14.7035 8.92473 14.6921 8.9847 14.6779C9.10462 14.6495 9.27802 14.6104 9.49584 14.5663C9.93155 14.4779 10.5444 14.3693 11.262 14.286C12.6996 14.119 14.5467 14.0546 16.2293 14.4493L16.2294 14.4494C16.6307 14.5432 17.0362 14.2937 17.1308 13.89C17.2252 13.487 16.9746 13.0836 16.5713 12.9892C12.8267 12.1104 8.58423 13.2283 8.40645 13.2759Z" fill="#2F2F2F" stroke="#2F2F2F" stroke-width="0.3"/>
<path d="M8.40638 16.8759L8.40645 16.8758C8.58426 16.8282 12.8267 15.711 16.5713 16.5891L8.40638 16.8759ZM8.40638 16.8759C8.00668 16.9831 7.76896 17.3941 7.87618 17.7945L7.8762 17.7946M8.40638 16.8759L7.8762 17.7946M7.8762 17.7946C7.96624 18.1299 8.26931 18.3502 8.60007 18.3502C8.66459 18.3502 8.72962 18.342 8.79434 18.3249L8.79435 18.3249M7.8762 17.7946L8.79435 18.3249M8.79435 18.3249L8.79696 18.3242M8.79435 18.3249L8.79696 18.3242M8.79696 18.3242C8.79678 18.3242 8.79695 18.3242 8.79752 18.324C8.79889 18.3237 8.80258 18.3227 8.8092 18.321L8.84613 18.3115C8.87817 18.3035 8.92473 18.292 8.9847 18.2778C9.10462 18.2495 9.27802 18.2104 9.49584 18.1662C9.93155 18.0778 10.5444 17.9693 11.262 17.8859C12.6996 17.7189 14.5467 17.6545 16.2293 18.0493L16.2294 18.0493M8.79696 18.3242L16.2294 18.0493M16.2294 18.0493C16.6307 18.1431 17.0362 17.8936 17.1308 17.4899M16.2294 18.0493L17.1308 17.4899M17.1308 17.4899C17.2252 17.0869 16.9746 16.6836 16.5713 16.5891L17.1308 17.4899Z" fill="#2F2F2F" stroke="#2F2F2F" stroke-width="0.3"/>
<path d="M22.3308 26.3401L22.331 26.3406L23.2722 26.5345L23.3402 26.6681C23.3402 26.6681 23.3403 26.6681 23.3403 26.6681C23.3846 26.6456 26.8999 24.8606 28.6259 24.3154L28.6261 24.3153C29.0205 24.1901 29.2395 23.7688 29.1143 23.3742C28.9898 22.9798 28.571 22.7602 28.1736 22.8845L28.1731 22.8846C26.3267 23.4685 22.8143 25.253 22.6601 25.3313L22.6595 25.3316C22.6595 25.3316 22.6595 25.3316 22.6595 25.3316C22.2902 25.5192 22.1435 25.9708 22.3308 26.3401Z" fill="#2F2F2F" stroke="#2F2F2F" stroke-width="0.3"/>
<path d="M17.1308 21.0896C17.0362 21.4934 16.6307 21.7428 16.2294 21.649L16.2293 21.649C14.5467 21.2542 12.6996 21.3187 11.262 21.4856C10.5444 21.569 9.93155 21.6775 9.49584 21.7659C9.27802 21.8101 9.10462 21.8492 8.9847 21.8775C8.92473 21.8917 8.87817 21.9032 8.84613 21.9112L8.8092 21.9207C8.80258 21.9224 8.79889 21.9234 8.79752 21.9237C8.79695 21.9239 8.79678 21.9239 8.79696 21.9239L8.79453 21.9246L8.79453 21.9246C8.73074 21.9415 8.66565 21.9506 8.60007 21.9506C8.26906 21.9506 7.96618 21.7294 7.8762 21.3943L7.87618 21.3942C7.76898 20.9939 8.0066 20.5829 8.40617 20.4756C8.58772 20.4264 12.8282 19.3111 16.5713 20.1888L17.1308 21.0896ZM17.1308 21.0896C17.2252 20.6867 16.9746 20.2833 16.5713 20.1888L17.1308 21.0896Z" fill="#2F2F2F" stroke="#2F2F2F" stroke-width="0.3"/>
<path d="M8.40645 27.6753L8.40638 27.6753C8.00668 27.7825 7.76896 28.1936 7.87618 28.5939L7.8762 28.594C7.96618 28.9292 8.26906 29.1503 8.60007 29.1503C8.66565 29.1503 8.73074 29.1412 8.79453 29.1243L8.79453 29.1243L8.79696 29.1236C8.79678 29.1237 8.79696 29.1237 8.79752 29.1235C8.7989 29.1231 8.80259 29.1222 8.8092 29.1204L8.84613 29.111C8.87817 29.1029 8.92473 29.0915 8.9847 29.0773C9.10462 29.049 9.27802 29.0098 9.49584 28.9657C9.93155 28.8773 10.5444 28.7687 11.262 28.6854C12.6996 28.5184 14.5467 28.454 16.2293 28.8488L16.2297 28.8489C16.6305 28.9417 17.0361 28.6934 17.1308 28.2894C17.2252 27.8864 16.9746 27.483 16.5713 27.3886C12.8267 26.5099 8.58423 27.6277 8.40645 27.6753ZM8.75608 28.9793C8.7963 28.9679 12.8497 27.9018 16.2636 28.7027L8.02107 28.5551C8.09307 28.8233 8.33542 29.0003 8.60007 29.0003C8.65168 29.0003 8.70384 28.9932 8.75608 28.9793Z" fill="#2F2F2F" stroke="#2F2F2F" stroke-width="0.3"/>
<path d="M16.9847 24.6554C16.9091 24.9782 16.5845 25.178 16.2636 25.103C12.8497 24.302 8.7963 25.3682 8.75608 25.3796C8.70384 25.3934 8.65168 25.4006 8.60007 25.4006C8.33542 25.4006 8.09307 25.2235 8.02107 24.9554C7.93529 24.6351 8.12548 24.3062 8.44525 24.2204L8.40596 24.0757C8.40603 24.0757 8.4061 24.0756 8.40617 24.0756M16.9847 24.6554L17.1308 24.6896M16.9847 24.6554C17.0602 24.3332 16.8599 24.0104 16.5371 23.9349L8.40617 24.0756M16.9847 24.6554L17.1308 24.6896C17.1308 24.6896 17.1308 24.6896 17.1308 24.6896M17.1308 24.6896C17.0362 25.0934 16.6307 25.3428 16.2294 25.249L16.2293 25.249C14.5467 24.8542 12.6996 24.9187 11.262 25.0856C10.5444 25.169 9.93155 25.2775 9.49584 25.3659C9.27802 25.4101 9.10462 25.4492 8.98469 25.4775C8.92473 25.4917 8.87817 25.5032 8.84613 25.5112L8.8092 25.5207C8.80123 25.5227 8.7975 25.5237 8.79696 25.5239C8.79687 25.5239 8.79687 25.5239 8.79696 25.5239L8.79453 25.5246L8.79453 25.5245C8.73074 25.5415 8.66564 25.5506 8.60007 25.5506C8.26906 25.5506 7.96618 25.3294 7.8762 24.9943L7.87618 24.9942C7.76898 24.5939 8.0066 24.1829 8.40617 24.0756M17.1308 24.6896C17.2252 24.2867 16.9746 23.8833 16.5713 23.7888C12.8282 22.9105 8.58769 24.0264 8.40617 24.0756" fill="#2F2F2F" stroke="#2F2F2F" stroke-width="0.3"/>
</svg>
