<svg width="40" height="40" viewBox="0 0 40 40" fill="none" xmlns="http://www.w3.org/2000/svg">
<path d="M38.4521 5.10845C38.1223 4.98462 37.7505 5.07767 37.5183 5.34237C37.3906 5.48775 34.3895 8.96463 34.1785 14.0685C34.0445 17.3034 34.0472 19.3506 35.2107 20.5005C35.7208 21.0049 36.3991 21.2825 37.3082 21.3512V34.0997C37.3082 34.5669 37.6868 34.9455 38.1541 34.9455C38.6213 34.9455 39 34.5669 39 34.0997V20.5192C39 20.5148 39 20.5106 39 20.5062V5.90008C38.9999 5.54786 38.7819 5.23263 38.4521 5.10845ZM37.3081 19.652C36.8914 19.6042 36.5914 19.4865 36.3996 19.2973C35.737 18.6421 35.7641 16.6607 35.8686 14.1383C35.9578 11.98 36.6307 10.1286 37.3081 8.78441V19.652Z" fill="#2F2F2F"/>
<path d="M20.3577 6.54797C12.9404 6.54797 6.90588 12.5826 6.90588 20.0002C6.90588 27.4173 12.9405 33.4519 20.3577 33.4519C27.7752 33.4519 33.8096 27.4173 33.8096 20.0002C33.8096 12.5826 27.7752 6.54797 20.3577 6.54797ZM20.3577 31.7601C13.8733 31.7601 8.59764 26.4845 8.59764 20.0002C8.59764 13.5154 13.8733 8.23972 20.3577 8.23972C26.8423 8.23972 32.1178 13.5154 32.1178 20.0002C32.1178 26.4845 26.8423 31.7601 20.3577 31.7601Z" fill="#2F2F2F"/>
<path d="M20.3576 10.4756C15.1061 10.4756 10.8336 14.7482 10.8336 19.9998C10.8336 25.2515 15.1062 29.524 20.3576 29.524C25.609 29.524 29.8816 25.2515 29.8816 19.9998C29.8816 14.7482 25.6092 10.4756 20.3576 10.4756ZM20.3576 27.8323C16.0388 27.8323 12.5254 24.3186 12.5254 19.9998C12.5254 15.681 16.0388 12.1673 20.3576 12.1673C24.6764 12.1673 28.1899 15.681 28.1899 19.9998C28.1899 24.3186 24.6764 27.8323 20.3576 27.8323Z" fill="#2F2F2F"/>
<path d="M6.87726 5.26453C6.41 5.26453 6.03138 5.64314 6.03138 6.1104V10.1122H5.20727V6.1104C5.20727 5.64314 4.82866 5.26453 4.3614 5.26453C3.89425 5.26453 3.51552 5.64314 3.51552 6.1104V10.1122H2.69175V6.1104C2.69175 5.64314 2.31314 5.26453 1.84588 5.26453C1.37873 5.26453 1 5.64314 1 6.1104V10.9581C1 13.9085 2.03558 16.2443 3.51563 16.8922V33.8892C3.51563 34.3564 3.89436 34.7351 4.36151 34.7351C4.82877 34.7351 5.20739 34.3564 5.20739 33.8892V16.8923C6.68767 16.2444 7.72325 13.9086 7.72325 10.9582V6.1104C7.72313 5.64325 7.34452 5.26453 6.87726 5.26453ZM4.36151 15.3807C3.77007 15.3807 2.9092 13.9844 2.7266 11.804H5.99642C5.81382 13.9844 4.95295 15.3807 4.36151 15.3807Z" fill="#2F2F2F"/>
</svg>
