<svg width="40" height="42" viewBox="0 0 40 42" fill="none" xmlns="http://www.w3.org/2000/svg">
<path d="M32.4104 12.5291H7.81113C7.60464 12.5291 7.41715 12.5987 7.28078 12.7351C7.1444 12.8715 7.07471 13.059 7.07471 13.2655V21.0655V28.8656V35.7512V36.6657V40.3236C7.07471 40.7158 7.39285 41.0063 7.81113 41.0063C8.01762 41.0063 8.20511 40.9366 8.34148 40.8002C8.47785 40.6638 8.54755 40.4763 8.54755 40.2698V37.3483H31.674V40.2698C31.674 40.4763 31.7437 40.6638 31.88 40.8002C32.0164 40.9366 32.2039 41.0063 32.4104 41.0063C32.6169 41.0063 32.8044 40.9366 32.9407 40.8002C33.0771 40.6638 33.1468 40.4763 33.1468 40.2698V36.6119V35.6974V28.8118V21.0655V13.2655C33.1468 13.059 33.0771 12.8715 32.9407 12.7351C32.8044 12.5987 32.6169 12.5291 32.4104 12.5291ZM31.674 35.6974V35.8755H8.54755V35.6974V29.5482H31.674V35.6974ZM31.674 28.0754H8.54755V21.802H31.674V28.0754ZM31.674 20.3291H8.54755V14.0019H31.674V20.3291Z" fill="#2F2F2F" stroke="#2F2F2F" stroke-width="0.39697"/>
<path d="M22.4418 16.5072H22.6402V16.3087V15.2335V15.035H22.4418H18.2391H18.0407V15.2335V16.3087V16.5072H18.2391H22.4418Z" fill="#2F2F2F" stroke="#2F2F2F" stroke-width="0.39697"/>
<path d="M22.4418 24.2736H22.6402V24.0751V22.9999V22.8014H22.4418H18.2391H18.0407V22.9999V24.0751V24.2736H18.2391H22.4418Z" fill="#2F2F2F" stroke="#2F2F2F" stroke-width="0.39697"/>
<path d="M22.4418 32.0737H22.6402V31.8752V30.8V30.6015H22.4418H18.2391H18.0407V30.8V31.8752V32.0737H18.2391H22.4418Z" fill="#2F2F2F" stroke="#2F2F2F" stroke-width="0.39697"/>
<path d="M9.13786 6.54292L10.956 0.668794C11.0805 0.269353 11.4269 0.00012207 11.8187 0.00012207H15.455C15.8468 0.00012207 16.1931 0.269353 16.3177 0.669772L18.1358 6.5439C18.2285 6.8425 18.1813 7.17047 18.0104 7.426C17.8395 7.68152 17.5649 7.83229 17.2731 7.83229H14.5459V10.7694H16.364V12.7274H10.9096V10.7694H12.7278V7.83229H10.0006C9.70875 7.83229 9.43421 7.68152 9.26331 7.42502C9.0924 7.16949 9.04604 6.84152 9.13786 6.54292ZM16.0122 5.87425L14.7995 1.95816H12.4732L11.2614 5.87425H16.0122Z" fill="#2F2F2F"/>
</svg>
