<svg width="40" height="35" viewBox="0 0 40 35" fill="none" xmlns="http://www.w3.org/2000/svg">
<mask id="path-1-outside-1" maskUnits="userSpaceOnUse" x="4.70081" y="0.25" width="30" height="35" fill="black">
<rect fill="white" x="4.70081" y="0.25" width="30" height="35"/>
<path fill-rule="evenodd" clip-rule="evenodd" d="M22.5894 12.219C23.1767 13.0985 24.178 13.6792 25.3127 13.6792C26.4473 13.6792 27.4486 13.0986 28.0359 12.219C28.6231 13.0985 29.6245 13.6792 30.7591 13.6792C32.5636 13.6792 34.0317 12.2111 34.0317 10.4065C34.0317 10.3506 34.0222 10.2942 34.0062 10.2407C33.9627 10.0999 33.2988 8.02022 31.3448 5.88161C30.9557 5.43196 30.0609 4.65762 29.6622 4.32665C27.0393 2.28532 23.7438 1.25029 19.8662 1.25H19.864C17.2762 1.25022 14.9232 1.71895 12.87 2.64322C11.2183 3.38685 9.75843 4.424 8.53119 5.72603C6.46781 7.91496 5.77259 10.0904 5.72644 10.2403C5.71824 10.2675 5.70081 10.379 5.70081 10.4066C5.70081 12.2112 7.16889 13.6793 8.97348 13.6793C10.1081 13.6793 11.1094 13.0987 11.6967 12.2191C12.2839 13.0987 13.2853 13.6793 14.4199 13.6793C15.5545 13.6793 16.5558 13.0987 17.1431 12.2191C17.3899 12.5887 17.71 12.9051 18.0823 13.1482C18.5536 13.5407 19.9271 14.0901 21.6502 13.148C22.0226 12.905 22.3427 12.5887 22.5894 12.219ZM32.6748 9.85705C32.3388 9.11004 31.674 7.87101 30.5336 6.62283C30.244 6.29145 29.3821 5.53211 28.9873 5.19386C27.6458 4.14983 26.1077 3.39037 24.3872 2.92018C24.5079 3.01987 24.6256 3.1233 24.7407 3.22944C25.5871 4.01021 26.2824 4.95302 26.8506 5.94512C27.545 7.15734 28.0823 8.47386 28.4532 9.82027L28.4634 9.85705H32.6748ZM30.7591 12.5803C31.7681 12.5803 32.6186 11.8895 32.8626 10.9559H28.6557C28.8997 11.8894 29.7502 12.5803 30.7591 12.5803ZM23.2091 10.956C23.4532 11.8895 24.3037 12.5804 25.3127 12.5804C26.3216 12.5804 27.1722 11.8895 27.4161 10.956H23.2091ZM21.3544 2.53664C21.3032 2.52324 21.2518 2.51071 21.2001 2.49877L21.1827 2.49459L21.162 2.48969L21.1536 2.488L21.168 2.50998C21.8641 3.55445 22.325 4.74806 22.6303 5.96094C22.9493 7.22648 23.098 8.53107 23.1314 9.83441L23.1321 9.85726H27.319C27.0839 9.06865 26.7906 8.29594 26.4423 7.55047C25.9632 6.52511 25.3794 5.54876 24.6344 4.69342C23.7586 3.68791 22.6587 2.87667 21.3544 2.53664ZM6.86981 10.956C7.11388 11.8895 7.96438 12.5804 8.97333 12.5804C9.98228 12.5804 10.8329 11.8895 11.0768 10.956H6.86981ZM11.269 9.85712L11.2729 9.84291C11.538 8.88018 11.8888 7.93979 12.316 7.03706C13.0186 5.55191 13.9405 4.1365 15.1893 3.05261C15.24 3.00859 15.291 2.96515 15.3424 2.92267C14.6488 3.11239 13.9848 3.34869 13.3525 3.63129C11.836 4.30922 10.4948 5.2551 9.36632 6.44241C8.1226 7.75103 7.40959 9.07407 7.05747 9.85712H11.269ZM12.3163 10.956C12.5602 11.8895 13.4108 12.5804 14.4197 12.5804C15.4287 12.5804 16.2793 11.8895 16.5232 10.956H12.3163ZM16.8129 7.3995L16.8153 7.38419C17.1861 4.99389 17.9531 3.42487 18.5766 2.49144C14.7026 3.37155 12.9435 8.09084 12.4141 9.85712H16.6003C16.6054 9.63729 16.6146 9.41754 16.627 9.19816C16.6634 8.59626 16.7137 7.99466 16.8129 7.3995ZM17.9316 7.38104C17.8138 8.08314 17.7434 8.79272 17.712 9.50383C17.7068 9.62155 17.7027 9.73933 17.6996 9.85712H22.0329L22.0328 9.85456C22.0168 9.05247 21.9446 8.24759 21.8167 7.45568C21.5914 6.06188 21.1822 4.67174 20.462 3.44956C20.2876 3.15348 20.0951 2.86663 19.8746 2.60293L19.8692 2.59656C19.6512 2.86282 19.458 3.14938 19.2834 3.44567C18.5737 4.65005 18.1617 6.00833 17.9316 7.38104ZM18.9595 12.3812C19.5305 12.6444 20.2019 12.6447 20.7728 12.3812C21.3579 12.1116 21.8039 11.5901 21.9698 10.9559H17.7628C17.9285 11.5901 18.3746 12.1115 18.9595 12.3812Z"/>
<path d="M19.181 20.228H19.8313H20.5514L20.528 13.675C20.0857 13.7683 19.6238 13.7712 19.181 13.6793C19.1732 13.6777 19.1653 13.6766 19.1575 13.675L19.181 20.228Z"/>
<path d="M24.046 34.0873C24.4834 34.0873 24.7475 33.577 24.494 33.2198L20.747 27.9407L18.5594 24.8584L17.7552 23.7256L16.4078 23.7257L22.9823 32.9885C23.2549 33.3746 23.8492 34.1349 24.046 34.0873Z"/>
<path d="M15.5233 34.0873C15.0858 34.0873 14.8217 33.577 15.0753 33.2198L18.8222 27.9407L21.0098 24.8584L21.814 23.7256L23.1614 23.7257L16.5869 32.9885C16.3144 33.3746 15.7201 34.1349 15.5233 34.0873Z"/>
<path fill-rule="evenodd" clip-rule="evenodd" d="M18.0823 20.2281H13.6151H11.4173H8.57829C7.61395 20.2281 6.82952 21.0126 6.82952 21.9769C6.82952 22.9411 7.61403 23.7256 8.57829 23.7256H14.6868H17.7552L31.1541 23.7254C32.1184 23.7254 32.9029 22.9409 32.9029 21.9767C32.9029 21.0124 32.1183 20.228 31.1541 20.228H21.6502L20.5514 20.228H19.8313L18.0823 20.2281ZM31.1542 21.3269H13.6151H11.4173H8.57829C8.21981 21.3269 7.92827 21.6183 7.92827 21.9768C7.92827 22.3353 8.21995 22.6268 8.57829 22.6268H31.1542C31.5127 22.6268 31.8043 22.3352 31.8043 21.9769C31.8043 21.6184 31.5126 21.3269 31.1542 21.3269Z"/>
</mask>
<path fill-rule="evenodd" clip-rule="evenodd" d="M22.5894 12.219C23.1767 13.0985 24.178 13.6792 25.3127 13.6792C26.4473 13.6792 27.4486 13.0986 28.0359 12.219C28.6231 13.0985 29.6245 13.6792 30.7591 13.6792C32.5636 13.6792 34.0317 12.2111 34.0317 10.4065C34.0317 10.3506 34.0222 10.2942 34.0062 10.2407C33.9627 10.0999 33.2988 8.02022 31.3448 5.88161C30.9557 5.43196 30.0609 4.65762 29.6622 4.32665C27.0393 2.28532 23.7438 1.25029 19.8662 1.25H19.864C17.2762 1.25022 14.9232 1.71895 12.87 2.64322C11.2183 3.38685 9.75843 4.424 8.53119 5.72603C6.46781 7.91496 5.77259 10.0904 5.72644 10.2403C5.71824 10.2675 5.70081 10.379 5.70081 10.4066C5.70081 12.2112 7.16889 13.6793 8.97348 13.6793C10.1081 13.6793 11.1094 13.0987 11.6967 12.2191C12.2839 13.0987 13.2853 13.6793 14.4199 13.6793C15.5545 13.6793 16.5558 13.0987 17.1431 12.2191C17.3899 12.5887 17.71 12.9051 18.0823 13.1482C18.5536 13.5407 19.9271 14.0901 21.6502 13.148C22.0226 12.905 22.3427 12.5887 22.5894 12.219ZM32.6748 9.85705C32.3388 9.11004 31.674 7.87101 30.5336 6.62283C30.244 6.29145 29.3821 5.53211 28.9873 5.19386C27.6458 4.14983 26.1077 3.39037 24.3872 2.92018C24.5079 3.01987 24.6256 3.1233 24.7407 3.22944C25.5871 4.01021 26.2824 4.95302 26.8506 5.94512C27.545 7.15734 28.0823 8.47386 28.4532 9.82027L28.4634 9.85705H32.6748ZM30.7591 12.5803C31.7681 12.5803 32.6186 11.8895 32.8626 10.9559H28.6557C28.8997 11.8894 29.7502 12.5803 30.7591 12.5803ZM23.2091 10.956C23.4532 11.8895 24.3037 12.5804 25.3127 12.5804C26.3216 12.5804 27.1722 11.8895 27.4161 10.956H23.2091ZM21.3544 2.53664C21.3032 2.52324 21.2518 2.51071 21.2001 2.49877L21.1827 2.49459L21.162 2.48969L21.1536 2.488L21.168 2.50998C21.8641 3.55445 22.325 4.74806 22.6303 5.96094C22.9493 7.22648 23.098 8.53107 23.1314 9.83441L23.1321 9.85726H27.319C27.0839 9.06865 26.7906 8.29594 26.4423 7.55047C25.9632 6.52511 25.3794 5.54876 24.6344 4.69342C23.7586 3.68791 22.6587 2.87667 21.3544 2.53664ZM6.86981 10.956C7.11388 11.8895 7.96438 12.5804 8.97333 12.5804C9.98228 12.5804 10.8329 11.8895 11.0768 10.956H6.86981ZM11.269 9.85712L11.2729 9.84291C11.538 8.88018 11.8888 7.93979 12.316 7.03706C13.0186 5.55191 13.9405 4.1365 15.1893 3.05261C15.24 3.00859 15.291 2.96515 15.3424 2.92267C14.6488 3.11239 13.9848 3.34869 13.3525 3.63129C11.836 4.30922 10.4948 5.2551 9.36632 6.44241C8.1226 7.75103 7.40959 9.07407 7.05747 9.85712H11.269ZM12.3163 10.956C12.5602 11.8895 13.4108 12.5804 14.4197 12.5804C15.4287 12.5804 16.2793 11.8895 16.5232 10.956H12.3163ZM16.8129 7.3995L16.8153 7.38419C17.1861 4.99389 17.9531 3.42487 18.5766 2.49144C14.7026 3.37155 12.9435 8.09084 12.4141 9.85712H16.6003C16.6054 9.63729 16.6146 9.41754 16.627 9.19816C16.6634 8.59626 16.7137 7.99466 16.8129 7.3995ZM17.9316 7.38104C17.8138 8.08314 17.7434 8.79272 17.712 9.50383C17.7068 9.62155 17.7027 9.73933 17.6996 9.85712H22.0329L22.0328 9.85456C22.0168 9.05247 21.9446 8.24759 21.8167 7.45568C21.5914 6.06188 21.1822 4.67174 20.462 3.44956C20.2876 3.15348 20.0951 2.86663 19.8746 2.60293L19.8692 2.59656C19.6512 2.86282 19.458 3.14938 19.2834 3.44567C18.5737 4.65005 18.1617 6.00833 17.9316 7.38104ZM18.9595 12.3812C19.5305 12.6444 20.2019 12.6447 20.7728 12.3812C21.3579 12.1116 21.8039 11.5901 21.9698 10.9559H17.7628C17.9285 11.5901 18.3746 12.1115 18.9595 12.3812Z" fill="#2F2F2F"/>
<path d="M19.181 20.228H19.8313H20.5514L20.528 13.675C20.0857 13.7683 19.6238 13.7712 19.181 13.6793C19.1732 13.6777 19.1653 13.6766 19.1575 13.675L19.181 20.228Z" fill="#2F2F2F"/>
<path d="M24.046 34.0873C24.4834 34.0873 24.7475 33.577 24.494 33.2198L20.747 27.9407L18.5594 24.8584L17.7552 23.7256L16.4078 23.7257L22.9823 32.9885C23.2549 33.3746 23.8492 34.1349 24.046 34.0873Z" fill="#2F2F2F"/>
<path d="M15.5233 34.0873C15.0858 34.0873 14.8217 33.577 15.0753 33.2198L18.8222 27.9407L21.0098 24.8584L21.814 23.7256L23.1614 23.7257L16.5869 32.9885C16.3144 33.3746 15.7201 34.1349 15.5233 34.0873Z" fill="#2F2F2F"/>
<path fill-rule="evenodd" clip-rule="evenodd" d="M18.0823 20.2281H13.6151H11.4173H8.57829C7.61395 20.2281 6.82952 21.0126 6.82952 21.9769C6.82952 22.9411 7.61403 23.7256 8.57829 23.7256H14.6868H17.7552L31.1541 23.7254C32.1184 23.7254 32.9029 22.9409 32.9029 21.9767C32.9029 21.0124 32.1183 20.228 31.1541 20.228H21.6502L20.5514 20.228H19.8313L18.0823 20.2281ZM31.1542 21.3269H13.6151H11.4173H8.57829C8.21981 21.3269 7.92827 21.6183 7.92827 21.9768C7.92827 22.3353 8.21995 22.6268 8.57829 22.6268H31.1542C31.5127 22.6268 31.8043 22.3352 31.8043 21.9769C31.8043 21.6184 31.5126 21.3269 31.1542 21.3269Z" fill="#2F2F2F"/>
<path d="M21.1827 2.49459L21.1591 2.59099L21.1591 2.59099L21.1827 2.49459ZM19.8313 20.228L19.8313 20.1288L19.8313 20.3273V20.228ZM28.5592 9.83103C28.5558 9.81876 28.5522 9.80583 28.5488 9.79354L28.3576 9.84701C28.3611 9.85933 28.3645 9.8716 28.3676 9.88306L28.5592 9.83103ZM23.2313 9.85537C23.2312 9.85041 23.231 9.84566 23.2309 9.84202C23.2307 9.83808 23.2306 9.83524 23.2306 9.83252L23.0321 9.8363C23.0322 9.84127 23.0324 9.84601 23.0325 9.84966C23.0327 9.8536 23.0328 9.85643 23.0329 9.85915L23.2313 9.85537ZM21.2507 2.45512C21.2483 2.45144 21.24 2.43865 21.236 2.43276L21.0712 2.54325C21.0767 2.55156 21.0782 2.55416 21.0853 2.56483L21.2507 2.45512ZM11.1771 9.81705C11.1756 9.82282 11.1755 9.82296 11.1733 9.83088L11.3647 9.88336C11.365 9.88219 11.3678 9.87223 11.3688 9.86876L11.1771 9.81705ZM16.7175 7.36742C16.7164 7.37345 16.7155 7.37943 16.7146 7.38527L16.9111 7.41374C16.9117 7.40947 16.9124 7.40519 16.9131 7.40096L16.7175 7.36742ZM21.2062 2.39818C21.1995 2.39654 21.1917 2.39464 21.1837 2.39285L21.1403 2.58653C21.1461 2.58783 21.1521 2.58928 21.1591 2.59099L21.2062 2.39818ZM21.2223 2.40205C21.2173 2.40088 21.2121 2.39963 21.2062 2.39818L21.1591 2.59099C21.1648 2.59239 21.1713 2.59397 21.1779 2.59549L21.2223 2.40205ZM19.8313 20.3273H20.5514V20.1288H19.8313V20.3273ZM19.8313 20.3273L21.6502 20.3272L21.6502 20.1287L19.8313 20.1288L19.8313 20.3273ZM14.6868 23.8248L31.1541 23.8247L31.1541 23.6262L14.6868 23.6263L14.6868 23.8248ZM22.5894 12.219L22.7545 12.1088L22.5894 11.8615L22.4244 12.1088L22.5894 12.219ZM28.0359 12.219L28.201 12.1088L28.0359 11.8616L27.8708 12.1088L28.0359 12.219ZM34.0062 10.2407L34.1963 10.1837L34.1958 10.1822L34.0062 10.2407ZM31.3448 5.88161L31.1947 6.01155L31.1983 6.01549L31.3448 5.88161ZM30.5336 6.62283L30.3841 6.75348L30.387 6.75671L30.5336 6.62283ZM32.6748 9.85705V10.0555H32.9818L32.8558 9.77561L32.6748 9.85705ZM28.4634 9.85705L28.2721 9.91001L28.3124 10.0555H28.4634V9.85705ZM28.4532 9.82027L28.2618 9.87299L28.2619 9.87324L28.4532 9.82027ZM26.8506 5.94512L26.6784 6.04377L26.6784 6.04378L26.8506 5.94512ZM24.7407 3.22944L24.8752 3.08355L24.8752 3.08354L24.7407 3.22944ZM24.3872 2.92018L24.4396 2.72871L24.2608 3.07322L24.3872 2.92018ZM28.9873 5.19386L29.1166 5.04298L29.1092 5.03723L28.9873 5.19386ZM29.6622 4.32665L29.789 4.17385L29.7841 4.17002L29.6622 4.32665ZM19.8662 1.25L19.8662 1.05152H19.8662V1.25ZM19.864 1.25V1.05152H19.864L19.864 1.25ZM12.87 2.64322L12.7885 2.46223L12.7885 2.46223L12.87 2.64322ZM8.53119 5.72603L8.67562 5.86217L8.67563 5.86217L8.53119 5.72603ZM5.72644 10.2403L5.53674 10.1819L5.53643 10.1829L5.72644 10.2403ZM11.6967 12.2191L11.8618 12.1089L11.6967 11.8617L11.5316 12.1089L11.6967 12.2191ZM17.1431 12.2191L17.3081 12.1089L17.1431 11.8617L16.978 12.1089L17.1431 12.2191ZM18.0823 13.1482L18.2093 12.9957L18.2004 12.9883L18.1908 12.982L18.0823 13.1482ZM18.0823 20.2281V20.4266H18.0823L18.0823 20.2281ZM24.046 34.0873V33.8888H24.0223L23.9993 33.8943L24.046 34.0873ZM24.494 33.2198L24.3321 33.3347L24.3321 33.3347L24.494 33.2198ZM20.747 27.9407L20.5851 28.0556L20.5851 28.0556L20.747 27.9407ZM31.1541 23.7254V23.527H31.1541L31.1541 23.7254ZM21.6502 20.228V20.0295H21.6502L21.6502 20.228ZM21.6502 13.148L21.7454 13.3222L21.7522 13.3185L21.7587 13.3142L21.6502 13.148ZM32.8626 10.9559L33.0546 11.0061L33.1196 10.7575H32.8626V10.9559ZM28.6557 10.9559V10.7575H28.3986L28.4636 11.0061L28.6557 10.9559ZM18.5594 24.8584L18.7212 24.7435L18.7212 24.7435L18.5594 24.8584ZM22.9823 32.9885L23.1445 32.874L23.1442 32.8736L22.9823 32.9885ZM16.4078 23.7257L16.4078 23.5272L16.0235 23.5272L16.246 23.8405L16.4078 23.7257ZM23.2091 10.956V10.7575H22.9521L23.0171 11.0062L23.2091 10.956ZM27.4161 10.956L27.6082 11.0062L27.6731 10.7575H27.4161V10.956ZM21.162 2.48969L21.2079 2.29645L21.2009 2.29506L21.162 2.48969ZM21.2001 2.49877L21.1539 2.6918L21.1554 2.69215L21.2001 2.49877ZM21.3544 2.53664L21.3042 2.72865L21.3044 2.72871L21.3544 2.53664ZM24.6344 4.69342L24.4847 4.82378L24.4847 4.82378L24.6344 4.69342ZM26.4423 7.55047L26.2624 7.63449L26.2624 7.6345L26.4423 7.55047ZM27.319 9.85726V10.0557H27.5853L27.5092 9.80057L27.319 9.85726ZM23.1321 9.85726L22.9337 9.8636L22.9398 10.0557H23.1321V9.85726ZM23.1314 9.83441L22.9329 9.83948L22.933 9.84075L23.1314 9.83441ZM22.6303 5.96094L22.4378 6.00939L22.4379 6.00944L22.6303 5.96094ZM21.168 2.50998L21.0021 2.61893L21.0029 2.62005L21.168 2.50998ZM21.1536 2.488L21.1925 2.29337L20.7272 2.20031L20.9877 2.59695L21.1536 2.488ZM6.86981 10.956V10.7575H6.61275L6.67778 11.0062L6.86981 10.956ZM11.0768 10.956L11.2688 11.0062L11.3338 10.7575H11.0768V10.956ZM11.2729 9.84291L11.4642 9.89614L11.4643 9.8956L11.2729 9.84291ZM11.269 9.85712V10.0556H11.4198L11.4602 9.91035L11.269 9.85712ZM7.05747 9.85712L6.87645 9.77572L6.75059 10.0556H7.05747V9.85712ZM9.36632 6.44241L9.22245 6.30567L9.22245 6.30568L9.36632 6.44241ZM13.3525 3.63129L13.2715 3.45008L13.2715 3.45009L13.3525 3.63129ZM15.3424 2.92267L15.4689 3.07559L15.29 2.73122L15.3424 2.92267ZM15.1893 3.05261L15.0592 2.90266L15.0592 2.90272L15.1893 3.05261ZM12.316 7.03706L12.4954 7.12196L12.4954 7.12195L12.316 7.03706ZM12.3163 10.956V10.7575H12.0592L12.1242 11.0062L12.3163 10.956ZM16.5232 10.956L16.7152 11.0062L16.7802 10.7575H16.5232V10.956ZM16.8153 7.38419L17.0113 7.41515L17.0114 7.41462L16.8153 7.38419ZM16.8129 7.3995L17.0087 7.43213L17.0089 7.43046L16.8129 7.3995ZM16.627 9.19816L16.4288 9.18615L16.4288 9.18704L16.627 9.19816ZM16.6003 9.85712V10.0556H16.7942L16.7987 9.86175L16.6003 9.85712ZM12.4141 9.85712L12.224 9.80013L12.1474 10.0556H12.4141V9.85712ZM18.5766 2.49144L18.7416 2.60168L19.0182 2.18757L18.5326 2.29789L18.5766 2.49144ZM17.712 9.50383L17.5137 9.49507V9.49507L17.712 9.50383ZM17.9316 7.38104L18.1274 7.4139L18.1274 7.41385L17.9316 7.38104ZM19.2834 3.44567L19.1124 3.34489L19.1124 3.34491L19.2834 3.44567ZM19.8692 2.59656L20.0213 2.46895L19.8673 2.28559L19.7157 2.4708L19.8692 2.59656ZM19.8746 2.60293L20.0268 2.47561L20.0266 2.47532L19.8746 2.60293ZM20.462 3.44956L20.291 3.5503L20.291 3.55032L20.462 3.44956ZM21.8167 7.45568L22.0126 7.42402V7.42402L21.8167 7.45568ZM22.0328 9.85456L21.8344 9.85852L21.8344 9.86025L22.0328 9.85456ZM22.0329 9.85712V10.0556H22.2372L22.2313 9.85142L22.0329 9.85712ZM17.6996 9.85712L17.5011 9.85181L17.4957 10.0556H17.6996V9.85712ZM20.5514 20.228L20.3529 20.2287L20.3536 20.4265L20.5514 20.4265L20.5514 20.228ZM19.181 20.228L18.9825 20.2287L18.9832 20.4265H19.181V20.228ZM19.1575 13.675L19.1979 13.4806L18.9582 13.4309L18.959 13.6757L19.1575 13.675ZM19.181 13.6793L19.1406 13.8737L19.1407 13.8737L19.181 13.6793ZM20.528 13.675L20.7265 13.6743L20.7256 13.4304L20.487 13.4808L20.528 13.675ZM20.7728 12.3812L20.6898 12.201L20.6897 12.201L20.7728 12.3812ZM18.9595 12.3812L18.8764 12.5614L18.8764 12.5614L18.9595 12.3812ZM17.7628 10.9559V10.7575H17.5058L17.5707 11.0061L17.7628 10.9559ZM21.9698 10.9559L22.1618 11.0062L22.2268 10.7575H21.9698V10.9559ZM21.1827 2.49459L21.2289 2.30156L21.2285 2.30148L21.1827 2.49459ZM19.8313 20.228L19.8313 20.4265L19.8313 20.0295V20.228ZM15.5233 34.0873L15.57 33.8943L15.5469 33.8888H15.5233V34.0873ZM15.0753 33.2198L15.2371 33.3347L15.2371 33.3347L15.0753 33.2198ZM18.8222 27.9407L18.9841 28.0556L18.9841 28.0556L18.8222 27.9407ZM21.0098 24.8584L20.848 24.7435L20.848 24.7435L21.0098 24.8584ZM21.814 23.7256L21.814 23.5271L21.7115 23.5271L21.6521 23.6107L21.814 23.7256ZM16.5869 32.9885L16.4251 32.8736L16.4248 32.874L16.5869 32.9885ZM23.1614 23.7257L23.3233 23.8405L23.5457 23.5272L23.1614 23.5272L23.1614 23.7257ZM22.4244 12.3292C23.0467 13.2613 24.1087 13.8777 25.3127 13.8777V13.4807C24.2474 13.4807 23.3067 12.9357 22.7545 12.1088L22.4244 12.3292ZM25.3127 13.8777C26.5167 13.8777 27.5785 13.2614 28.201 12.3292L27.8708 12.1088C27.3186 12.9358 26.378 13.4807 25.3127 13.4807V13.8777ZM27.8708 12.3292C28.4932 13.2613 29.5551 13.8777 30.7591 13.8777V13.4807C29.6938 13.4807 28.7531 12.9357 28.201 12.1088L27.8708 12.3292ZM30.7591 13.8777C32.6732 13.8777 34.2302 12.3207 34.2302 10.4065H33.8332C33.8332 12.1015 32.4539 13.4807 30.7591 13.4807V13.8777ZM34.2302 10.4065C34.2302 10.3285 34.217 10.2528 34.1963 10.1837L33.816 10.2978C33.8274 10.3356 33.8332 10.3727 33.8332 10.4065H34.2302ZM34.1958 10.1822C34.1475 10.0256 33.4723 7.91576 31.4914 5.74773L31.1983 6.01549C33.1254 8.12468 33.7779 10.1742 33.8165 10.2992L34.1958 10.1822ZM30.387 6.75671C31.5097 7.98542 32.1639 9.20512 32.4938 9.93848L32.8558 9.77561C32.5136 9.01496 31.8383 7.75661 30.6801 6.48895L30.387 6.75671ZM32.6748 9.65856H28.4634V10.0555H32.6748V9.65856ZM28.6446 9.76756C28.2694 8.40602 27.726 7.07394 27.0229 5.84646L26.6784 6.04378C27.3641 7.24073 27.8951 8.5417 28.2618 9.87299L28.6446 9.76756ZM27.0229 5.84646C26.4472 4.84142 25.74 3.88126 24.8752 3.08355L24.6061 3.37533C25.4341 4.13917 26.1175 5.06461 26.6784 6.04377L27.0229 5.84646ZM24.8752 3.08354C24.7578 2.97527 24.6375 2.86942 24.5136 2.76714L24.2608 3.07322C24.3784 3.17032 24.4933 3.27133 24.6061 3.37534L24.8752 3.08354ZM24.3349 3.11164C26.0314 3.5753 27.5457 4.32339 28.8654 5.3505L29.1092 5.03723C27.746 3.97627 26.1839 3.20544 24.4396 2.72871L24.3349 3.11164ZM29.7841 4.17002C27.1207 2.0972 23.7803 1.05181 19.8662 1.05152L19.8661 1.44848C23.7073 1.44878 26.9578 2.47343 29.5403 4.48329L29.7841 4.17002ZM19.8662 1.05152H19.864V1.44848H19.8662V1.05152ZM19.864 1.05152C17.2523 1.05174 14.8708 1.52483 12.7885 2.46223L12.9515 2.82421C14.9755 1.91307 17.3002 1.4487 19.864 1.44848L19.864 1.05152ZM12.7885 2.46223C11.1134 3.21641 9.63207 4.26869 8.38676 5.58989L8.67563 5.86217C9.88479 4.57932 11.3232 3.5573 12.9515 2.82421L12.7885 2.46223ZM8.38676 5.58988C6.29493 7.809 5.58786 10.0159 5.53675 10.1819L5.91614 10.2987C5.95732 10.165 6.64069 8.02093 8.67562 5.86217L8.38676 5.58988ZM5.53643 10.1829C5.5276 10.2122 5.51935 10.261 5.5144 10.2929C5.50963 10.3237 5.50232 10.3746 5.50232 10.4066H5.89929C5.89929 10.4117 5.89899 10.4136 5.89933 10.4096C5.89958 10.4067 5.90003 10.4023 5.90074 10.3963C5.90217 10.3844 5.90426 10.3694 5.90669 10.3537C5.90912 10.338 5.9117 10.3229 5.91399 10.3108C5.91682 10.2959 5.91779 10.2932 5.91646 10.2977L5.53643 10.1829ZM5.50232 10.4066C5.50232 12.3208 7.05926 13.8778 8.97348 13.8778V13.4808C7.27851 13.4808 5.89929 12.1015 5.89929 10.4066H5.50232ZM8.97348 13.8778C10.1775 13.8778 11.2393 13.2615 11.8618 12.3294L11.5316 12.1089C10.9794 12.9359 10.0388 13.4808 8.97348 13.4808V13.8778ZM11.5316 12.3294C12.154 13.2615 13.2159 13.8778 14.4199 13.8778V13.4808C13.3546 13.4808 12.4139 12.9359 11.8618 12.1089L11.5316 12.3294ZM14.4199 13.8778C15.6238 13.8778 16.6857 13.2615 17.3081 12.3294L16.978 12.1089C16.4258 12.9359 15.4851 13.4808 14.4199 13.4808V13.8778ZM16.978 12.3294C17.2397 12.7213 17.5791 13.0567 17.9738 13.3144L18.1908 12.982C17.8408 12.7535 17.54 12.4561 17.3081 12.1089L16.978 12.3294ZM18.0823 20.0296H13.6151V20.4266H18.0823V20.0296ZM13.6151 21.5253H31.1542V21.1284H13.6151V21.5253ZM31.1542 21.5253C31.403 21.5253 31.6058 21.728 31.6058 21.9769H32.0027C32.0027 21.5088 31.6222 21.1284 31.1542 21.1284V21.5253ZM31.6058 21.9769C31.6058 22.2256 31.4031 22.4283 31.1542 22.4283V22.8253C31.6223 22.8253 32.0027 22.4448 32.0027 21.9769H31.6058ZM31.1542 22.4283H8.57829V22.8253H31.1542V22.4283ZM8.57829 22.4283C8.32954 22.4283 8.12676 22.2256 8.12676 21.9768H7.72979C7.72979 22.4449 8.11036 22.8253 8.57829 22.8253V22.4283ZM8.12676 21.9768C8.12676 21.728 8.3294 21.5253 8.57829 21.5253V21.1284C8.11022 21.1284 7.72979 21.5087 7.72979 21.9768H8.12676ZM8.57829 21.5253H11.4173V21.1284H8.57829V21.5253ZM11.4173 20.0296H8.57829V20.4266H11.4173V20.0296ZM8.57829 20.0296C7.50433 20.0296 6.63103 20.903 6.63103 21.9769H7.028C7.028 21.1222 7.72358 20.4266 8.57829 20.4266V20.0296ZM6.63103 21.9769C6.63103 23.0508 7.50442 23.9241 8.57829 23.9241V23.5271C7.72364 23.5271 7.028 22.8315 7.028 21.9769H6.63103ZM8.57829 23.9241H14.6868V23.5271H8.57829V23.9241ZM24.046 34.2857C24.6444 34.2857 25.0027 33.5937 24.6558 33.1049L24.3321 33.3347C24.4923 33.5603 24.3224 33.8888 24.046 33.8888V34.2857ZM24.6558 33.105L20.9089 27.8258L20.5851 28.0556L24.3321 33.3347L24.6558 33.105ZM33.1013 21.9767C33.1013 20.9028 32.228 20.0295 31.1541 20.0295V20.4264C32.0087 20.4264 32.7044 21.122 32.7044 21.9767H33.1013ZM21.7587 13.3142C22.1534 13.0566 22.4928 12.7213 22.7545 12.3292L22.4244 12.1088C22.1925 12.4561 21.8917 12.7534 21.5417 12.9818L21.7587 13.3142ZM32.6705 10.9058C32.4488 11.7543 31.6754 12.3819 30.7591 12.3819V12.7788C31.8607 12.7788 32.7885 12.0247 33.0546 11.0061L32.6705 10.9058ZM30.7591 12.3819C29.8429 12.3819 29.0695 11.7542 28.8477 10.9058L28.4636 11.0061C28.7298 12.0246 29.6575 12.7788 30.7591 12.7788V12.3819ZM28.6557 11.1544H32.8626V10.7575H28.6557V11.1544ZM18.7212 24.7435L17.9171 23.6107L17.5934 23.8405L18.3975 24.9733L18.7212 24.7435ZM16.246 23.8405L22.8205 33.1034L23.1442 32.8736L16.5697 23.6108L16.246 23.8405ZM25.3127 12.3819C24.3964 12.3819 23.623 11.7543 23.4012 10.9058L23.0171 11.0062C23.2834 12.0247 24.211 12.7789 25.3127 12.7789V12.3819ZM23.2091 11.1545H27.4161V10.7575H23.2091V11.1545ZM27.2241 10.9058C27.0024 11.7543 26.2289 12.3819 25.3127 12.3819V12.7789C26.4143 12.7789 27.342 12.0247 27.6082 11.0062L27.2241 10.9058ZM21.1554 2.69215C21.2056 2.70376 21.2552 2.71583 21.3042 2.72865L21.4047 2.34463C21.3513 2.33064 21.2979 2.31766 21.2448 2.30539L21.1554 2.69215ZM21.3044 2.72871C22.5598 3.05599 23.6272 3.83928 24.4847 4.82378L24.784 4.56306C23.89 3.53655 22.7577 2.69735 21.4045 2.34457L21.3044 2.72871ZM24.4847 4.82378C25.2145 5.66159 25.7889 6.621 26.2624 7.63449L26.6221 7.46645C26.1375 6.42923 25.5443 5.43593 24.784 4.56305L24.4847 4.82378ZM26.2624 7.6345C26.6067 8.37105 26.8965 9.13462 27.1288 9.91396L27.5092 9.80057C27.2714 9.00269 26.9746 8.22083 26.6221 7.46644L26.2624 7.6345ZM27.319 9.65878H23.1321V10.0557H27.319V9.65878ZM23.3298 9.82934C23.2962 8.51453 23.146 7.19498 22.8228 5.91244L22.4379 6.00944C22.7525 7.25799 22.8999 8.54761 22.9329 9.83948L23.3298 9.82934ZM22.8228 5.91249C22.5137 4.68454 22.0452 3.46832 21.3332 2.3999L21.0029 2.62005C21.683 3.64058 22.1363 4.81158 22.4378 6.00939L22.8228 5.91249ZM21.1147 2.68263L21.1231 2.68432L21.2009 2.29506L21.1925 2.29337L21.1147 2.68263ZM8.97333 12.3819C8.05707 12.3819 7.28368 11.7543 7.06184 10.9058L6.67778 11.0062C6.94407 12.0247 7.87169 12.7789 8.97333 12.7789V12.3819ZM6.86981 11.1545H11.0768V10.7575H6.86981V11.1545ZM10.8847 10.9059C10.6631 11.7543 9.88961 12.3819 8.97333 12.3819V12.7789C10.0749 12.7789 11.0028 12.0247 11.2688 11.0062L10.8847 10.9059ZM11.269 9.65863H7.05747V10.0556H11.269V9.65863ZM7.2385 9.93852C7.5842 9.16973 8.28594 7.86729 9.51019 6.57915L9.22245 6.30568C7.95927 7.63477 7.23497 8.97842 6.87645 9.77572L7.2385 9.93852ZM9.51019 6.57915C10.6206 5.41089 11.9403 4.48 13.4335 3.81249L13.2715 3.45009C11.7316 4.13844 10.369 5.09931 9.22245 6.30567L9.51019 6.57915ZM13.4335 3.8125C14.0562 3.53421 14.7105 3.30127 15.3947 3.11412L15.29 2.73122C14.587 2.9235 13.9135 3.16317 13.2715 3.45008L13.4335 3.8125ZM15.2158 2.76974C15.163 2.81343 15.1108 2.8579 15.0592 2.90266L15.3193 3.20256C15.3692 3.15928 15.419 3.11687 15.4689 3.07559L15.2158 2.76974ZM15.0592 2.90272C13.7829 4.0105 12.8464 5.45182 12.1365 6.95217L12.4954 7.12195C13.1909 5.652 14.0981 4.26249 15.3194 3.20251L15.0592 2.90272ZM12.1365 6.95216C11.7045 7.86507 11.3498 8.81622 11.0816 9.79021L11.4643 9.8956C11.7263 8.94414 12.073 8.01452 12.4954 7.12196L12.1365 6.95216ZM14.4197 12.3819C13.5034 12.3819 12.7301 11.7543 12.5083 10.9058L12.1242 11.0062C12.3904 12.0247 13.3181 12.7789 14.4197 12.7789V12.3819ZM12.3163 11.1545H16.5232V10.7575H12.3163V11.1545ZM16.3311 10.9059C16.1095 11.7543 15.336 12.3819 14.4197 12.3819V12.7789C15.5213 12.7789 16.4491 12.0247 16.7152 11.0062L16.3311 10.9059ZM16.6171 7.36687C16.5162 7.97217 16.4655 8.5818 16.4288 9.18615L16.8251 9.21017C16.8614 8.61073 16.9112 8.01714 17.0086 7.43213L16.6171 7.36687ZM16.4288 9.18704C16.4164 9.40828 16.407 9.63021 16.4019 9.85249L16.7987 9.86175C16.8038 9.64438 16.8129 9.42681 16.8251 9.20928L16.4288 9.18704ZM16.6003 9.65863H12.4141V10.0556H16.6003V9.65863ZM12.6042 9.9141C12.8663 9.03981 13.4317 7.43878 14.4071 5.95078C15.3836 4.46101 16.7546 3.10891 18.6206 2.685L18.5326 2.29789C16.5246 2.75408 15.079 4.20167 14.0751 5.73315C13.0701 7.26639 12.4913 8.90815 12.224 9.80013L12.6042 9.9141ZM18.4115 2.3812C17.7723 3.3383 16.9944 4.93449 16.6191 7.35377L17.0114 7.41462C17.3777 5.05329 18.134 3.51145 18.7416 2.60168L18.4115 2.3812ZM17.9103 9.5126C17.9414 8.80868 18.011 8.10721 18.1274 7.4139L17.7359 7.34818C17.6165 8.05908 17.5455 8.77676 17.5137 9.49507L17.9103 9.5126ZM18.1274 7.41385C18.3548 6.05723 18.7605 4.72394 19.4544 3.54644L19.1124 3.34491C18.3868 4.57617 17.9686 5.95944 17.7359 7.34823L18.1274 7.41385ZM19.4544 3.54645C19.625 3.25696 19.8125 2.97913 20.0228 2.72232L19.7157 2.4708C19.4899 2.74651 19.291 3.0418 19.1124 3.34489L19.4544 3.54645ZM19.7172 2.72417L19.7225 2.73054L20.0266 2.47532L20.0213 2.46895L19.7172 2.72417ZM19.7223 2.73025C19.934 2.98342 20.1205 3.26073 20.291 3.5503L20.6331 3.34882C20.4548 3.04623 20.2561 2.74984 20.0268 2.47561L19.7223 2.73025ZM20.291 3.55032C20.9949 4.74473 21.398 6.10918 21.6207 7.48735L22.0126 7.42402C21.7848 6.01458 21.3696 4.59874 20.633 3.34879L20.291 3.55032ZM21.6207 7.48735C21.7472 8.27 21.8185 9.06562 21.8344 9.85852L22.2313 9.85059C22.215 9.03931 22.1421 8.22518 22.0126 7.42402L21.6207 7.48735ZM21.8344 9.86025L21.8345 9.86281L22.2313 9.85142L22.2312 9.84886L21.8344 9.86025ZM22.0329 9.65863H17.6996V10.0556H22.0329V9.65863ZM17.898 9.86242C17.9011 9.7457 17.9052 9.62907 17.9103 9.51259L17.5137 9.49507C17.5085 9.61402 17.5043 9.73296 17.5011 9.85181L17.898 9.86242ZM19.1172 13.8693C19.1249 13.8709 19.1321 13.8722 19.1354 13.8727C19.1375 13.8731 19.1387 13.8733 19.1397 13.8735C19.1406 13.8736 19.1408 13.8737 19.1406 13.8737L19.2213 13.485C19.2136 13.4834 19.2064 13.4822 19.2031 13.4816C19.201 13.4812 19.1998 13.481 19.1988 13.4808C19.1979 13.4807 19.1977 13.4806 19.1979 13.4806L19.1172 13.8693ZM19.1407 13.8737C19.6109 13.9712 20.1005 13.968 20.5689 13.8692L20.487 13.4808C20.0709 13.5686 19.6367 13.5711 19.2213 13.485L19.1407 13.8737ZM20.6897 12.201C20.1715 12.4401 19.5609 12.4398 19.0426 12.2009L18.8764 12.5614C19.5001 12.8489 20.2322 12.8493 20.856 12.5615L20.6897 12.201ZM19.0426 12.2009C18.5106 11.9556 18.1052 11.4814 17.9548 10.9058L17.5707 11.0061C17.7517 11.6988 18.2385 12.2673 18.8764 12.5614L19.0426 12.2009ZM17.7628 11.1544H21.9698V10.7575H17.7628V11.1544ZM21.7777 10.9057C21.6272 11.4814 21.2218 11.9558 20.6898 12.201L20.8559 12.5615C21.494 12.2675 21.9806 11.6988 22.1618 11.0062L21.7777 10.9057ZM11.4173 20.4266H13.6151V20.0296H11.4173V20.4266ZM13.6151 21.1284H11.4173V21.5253H13.6151V21.1284ZM18.959 13.6757L18.9825 20.2287L19.3795 20.2273L19.356 13.6743L18.959 13.6757ZM20.3295 13.6757L20.3529 20.2287L20.7499 20.2273L20.7265 13.6743L20.3295 13.6757ZM31.1541 20.0295H21.6502V20.4264H31.1541V20.0295ZM17.9553 13.3007C18.4858 13.7425 19.947 14.3054 21.7454 13.3222L21.555 12.9739C19.9072 13.8748 18.6214 13.3388 18.2093 12.9957L17.9553 13.3007ZM20.9877 2.59695L21.0021 2.61893L21.3339 2.40103L21.3195 2.37905L20.9877 2.59695ZM22.933 9.84075L22.9337 9.8636L23.3305 9.85093L23.3297 9.82807L22.933 9.84075ZM11.4602 9.91035L11.4642 9.89614L11.0817 9.78968L11.0778 9.80389L11.4602 9.91035ZM21.1161 2.6828L21.1368 2.6877L21.2285 2.30148L21.2079 2.29658L21.1161 2.6828ZM21.1364 2.68761L21.1539 2.6918L21.2463 2.30574L21.2289 2.30156L21.1364 2.68761ZM28.8582 5.34458C29.2569 5.68623 30.106 6.43526 30.3841 6.75345L30.683 6.49221C30.3819 6.14763 29.5073 5.37799 29.1165 5.04314L28.8582 5.34458ZM29.5354 4.47938C29.936 4.81187 30.818 5.5762 31.1947 6.0115L31.4949 5.75172C31.0933 5.28773 30.1859 4.50337 29.789 4.17393L29.5354 4.47938ZM28.2619 9.87324L28.2721 9.91001L28.6547 9.80408L28.6445 9.76731L28.2619 9.87324ZM17.0089 7.43046L17.0113 7.41515L16.6192 7.35324L16.6168 7.36855L17.0089 7.43046ZM19.181 20.4265H19.8313V20.0295H19.181V20.4265ZM18.0823 20.4266L19.8313 20.4265L19.8313 20.0295L18.0823 20.0296L18.0823 20.4266ZM21.6502 20.0295L20.5514 20.0295L20.5514 20.4265L21.6502 20.4264L21.6502 20.0295ZM18.3975 24.9733L20.5851 28.0556L20.9089 27.8258L18.7212 24.7435L18.3975 24.9733ZM22.8202 33.103C22.959 33.2997 23.1805 33.5928 23.3944 33.8326C23.5007 33.9518 23.6103 34.0638 23.7106 34.1445C23.7603 34.1846 23.8143 34.2224 23.8695 34.2487C23.9195 34.2725 24.0016 34.3022 24.0927 34.2802L23.9993 33.8943C24.0411 33.8842 24.0617 33.9006 24.0404 33.8904C24.0244 33.8828 23.9975 33.866 23.9596 33.8354C23.8845 33.7749 23.7917 33.6817 23.6907 33.5684C23.4901 33.3435 23.2781 33.0634 23.1445 32.874L22.8202 33.103ZM16.4078 23.9241L17.7553 23.9241L17.7552 23.5271L16.4078 23.5272L16.4078 23.9241ZM15.5233 33.8888C15.2468 33.8888 15.077 33.5603 15.2371 33.3347L14.9134 33.1049C14.5665 33.5937 14.9248 34.2857 15.5233 34.2857V33.8888ZM15.2371 33.3347L18.9841 28.0556L18.6604 27.8258L14.9134 33.105L15.2371 33.3347ZM21.1717 24.9733L21.9758 23.8405L21.6521 23.6107L20.848 24.7435L21.1717 24.9733ZM22.9996 23.6108L16.4251 32.8736L16.7488 33.1034L23.3233 23.8405L22.9996 23.6108ZM20.848 24.7435L18.6604 27.8258L18.9841 28.0556L21.1717 24.9733L20.848 24.7435ZM16.4248 32.874C16.2911 33.0634 16.0792 33.3435 15.8786 33.5684C15.7776 33.6817 15.6848 33.7749 15.6096 33.8354C15.5717 33.866 15.5449 33.8828 15.5289 33.8904C15.5076 33.9006 15.5281 33.8842 15.57 33.8943L15.4766 34.2802C15.5676 34.3022 15.6498 34.2725 15.6997 34.2487C15.7549 34.2224 15.809 34.1846 15.8587 34.1445C15.9589 34.0638 16.0686 33.9518 16.1748 33.8326C16.3887 33.5928 16.6102 33.2997 16.7491 33.103L16.4248 32.874ZM23.1614 23.5272L21.814 23.5271L21.814 23.9241L23.1614 23.9241L23.1614 23.5272ZM31.1541 23.9239C32.228 23.9239 33.1013 23.0505 33.1013 21.9767H32.7044C32.7044 22.8313 32.0088 23.527 31.1541 23.527V23.9239ZM14.6868 23.9241H17.7552V23.5271H14.6868V23.9241ZM17.7552 23.9241L31.1541 23.9239L31.1541 23.527L17.7552 23.5271L17.7552 23.9241Z" fill="#2F2F2F" mask="url(#path-1-outside-1)"/>
<path d="M13.0016 33.1743L13.0016 33.1743L12.0115 29.578C12.569 29.4869 12.9961 29.0033 12.9961 28.42V27.003C12.9961 26.3551 12.4693 25.8282 11.8214 25.8282H6.55686L4.84534 18.873C4.67511 18.1812 3.95129 17.7442 3.26049 17.9141L3.26048 17.9141L2.14686 18.1882L2.14686 18.1882C1.45367 18.3587 1.01721 19.0796 1.18788 19.7731C1.18788 19.7731 1.18788 19.7731 1.18788 19.7731L3.25221 28.1615C3.41891 28.8389 3.93706 29.351 4.58424 29.5271L3.58018 33.1742C3.46782 33.5823 3.78345 33.9951 4.20553 33.9951C4.35979 33.9951 4.50921 33.8958 4.61239 33.7937C4.6661 33.7405 4.71284 33.6813 4.74679 33.623C4.77649 33.5721 4.80175 33.5129 4.80577 33.4548L5.9104 29.5948H9.68839H10.6706L11.5583 32.8192C11.5933 33.0088 11.6717 33.2913 11.7965 33.5298C11.8595 33.65 11.9367 33.764 12.0304 33.8491C12.1249 33.9349 12.2406 33.9951 12.3762 33.9951C12.7894 33.9952 13.1158 33.5894 13.0016 33.1743ZM6.04844 27.1255H11.6988V28.2975H5.08095C4.81047 28.2975 4.57659 28.1142 4.51191 27.8515C4.51191 27.8515 4.51191 27.8515 4.51191 27.8515L2.44765 19.4632L2.44759 19.463C2.44685 19.46 2.44712 19.4586 2.44725 19.458C2.44748 19.4569 2.44802 19.4555 2.4489 19.4541L2.44915 19.4537C2.45004 19.4522 2.45105 19.451 2.45198 19.4502C2.45255 19.4498 2.45376 19.4488 2.45686 19.4481L3.57051 19.174L3.57061 19.174C3.5726 19.1735 3.57589 19.1736 3.57968 19.1759C3.58348 19.1782 3.58513 19.1811 3.58564 19.1832L3.58565 19.1832L5.41859 26.6319L5.51495 26.6082L5.41859 26.6319C5.48993 26.9218 5.7499 27.1255 6.04844 27.1255Z" fill="#2F2F2F" stroke="#2F2F2F" stroke-width="0.198485"/>
<path d="M26.9972 33.1744L26.9972 33.1744L27.9872 29.5781C27.4298 29.487 27.0026 29.0034 27.0026 28.4201V27.0031C27.0026 26.3553 27.5295 25.8283 28.1774 25.8283H33.4419L35.1534 18.8732C35.3237 18.1814 36.0475 17.7443 36.7383 17.9142L36.7383 17.9142L37.8519 18.1883L37.8519 18.1883C38.5451 18.3589 38.9816 19.0798 38.8109 19.7732C38.8109 19.7732 38.8109 19.7732 38.8109 19.7732L36.7466 28.1616C36.5799 28.8391 36.0617 29.3511 35.4145 29.5272L36.4186 33.1743C36.531 33.5824 36.2153 33.9952 35.7932 33.9952C35.639 33.9952 35.4896 33.8959 35.3864 33.7938C35.3327 33.7406 35.2859 33.6814 35.252 33.6232C35.2223 33.5722 35.197 33.513 35.193 33.4549L34.0884 29.5949H30.3104H29.3281L28.4405 32.8193C28.4055 33.0089 28.3271 33.2914 28.2022 33.5299C28.1393 33.6501 28.062 33.7641 27.9684 33.8492C27.8739 33.935 27.7582 33.9952 27.6226 33.9952C27.2094 33.9953 26.883 33.5895 26.9972 33.1744ZM33.9503 27.1256H28.3V28.2976H34.9178C35.1883 28.2976 35.4222 28.1144 35.4869 27.8517C35.4869 27.8517 35.4869 27.8516 35.4869 27.8516L37.5511 19.4633L37.5512 19.4631C37.5519 19.4601 37.5517 19.4587 37.5515 19.4581C37.5513 19.457 37.5508 19.4556 37.5499 19.4542L37.5496 19.4538C37.5487 19.4523 37.5477 19.4511 37.5468 19.4504C37.5462 19.4499 37.545 19.4489 37.5419 19.4482L36.4283 19.1742L36.4282 19.1741C36.4262 19.1736 36.4229 19.1737 36.4191 19.176C36.4153 19.1783 36.4136 19.1812 36.4131 19.1833L36.4131 19.1833L34.5802 26.632L34.4838 26.6083L34.5802 26.632C34.5088 26.9219 34.2489 27.1256 33.9503 27.1256Z" fill="#2F2F2F" stroke="#2F2F2F" stroke-width="0.198485"/>
</svg>
