<svg width="16" height="16" viewBox="0 0 16 16" fill="none" xmlns="http://www.w3.org/2000/svg">
<path d="M15.8306 4.60881C15.9718 4.79254 16.0247 5.01301 15.9894 5.27023L15.3187 9.27555C15.2951 9.48383 15.2039 9.65525 15.0451 9.78999C14.8862 9.92472 14.7068 9.99209 14.5067 9.99209H4.72792L4.53376 11.1312H13.8537C14.0772 11.1312 14.2713 11.2139 14.4361 11.3792C14.6009 11.5446 14.6832 11.7498 14.6832 11.9947C14.6832 12.2397 14.6009 12.4449 14.4361 12.6102C14.2713 12.7756 14.0772 12.8583 13.8537 12.8583H3.54529C3.29817 12.8583 3.08636 12.7541 2.90984 12.546C2.7451 12.3377 2.68038 12.0988 2.71568 11.8295L3.15696 9.33075L2.48621 2.31226L0.579877 1.68758C0.356294 1.61409 0.194491 1.4732 0.094467 1.26501C-0.00555688 1.05675 -0.02615 0.836306 0.0326875 0.603583C0.103293 0.37086 0.241561 0.202442 0.447492 0.0983288C0.653424 -0.00578407 0.862297 -0.0272191 1.07411 0.0340238L3.50999 0.84243C3.66296 0.891424 3.78947 0.983289 3.88949 1.11802C3.98951 1.25276 4.05129 1.40589 4.07483 1.57737L4.21604 2.97371L15.2657 4.25981C15.5128 4.29647 15.7011 4.41283 15.8306 4.60881ZM4.79856 13.3359C5.15158 13.3359 5.45166 13.4646 5.69877 13.7218C5.94589 13.979 6.06945 14.2914 6.06945 14.6589C6.06945 15.0262 5.94589 15.3417 5.69877 15.6051C5.45166 15.8684 5.15158 16.0001 4.79856 16.0001C4.44553 16.0001 4.14546 15.8684 3.89834 15.6051C3.65123 15.3417 3.52767 15.0263 3.52767 14.6589C3.52767 14.2914 3.65123 13.979 3.89834 13.7218C4.14543 13.4646 4.4455 13.3359 4.79856 13.3359ZM12.3356 13.3359C12.6886 13.3359 12.9887 13.4646 13.2359 13.7218C13.4829 13.979 13.6065 14.2914 13.6065 14.6589C13.6065 15.0262 13.483 15.3417 13.2359 15.6051C12.9887 15.8684 12.6886 16.0001 12.3356 16.0001C11.9826 16.0001 11.6825 15.8684 11.4354 15.6051C11.1883 15.3417 11.0647 15.0263 11.0647 14.6589C11.0647 14.2914 11.1883 13.979 11.4354 13.7218C11.6825 13.4646 11.9826 13.3359 12.3356 13.3359Z" fill="white"/>
</svg>
