<svg width="40" height="40" viewBox="0 0 40 40" fill="none" xmlns="http://www.w3.org/2000/svg">
<path d="M24.5 15.4999C24.2 15.1999 23.7 15.1999 23.4 15.4999C23.1 15.7999 23.1 16.2999 23.4 16.5999C24.3 17.4999 24.8 18.6999 24.8 19.9999C24.8 22.5999 22.7 24.6999 20.1 24.6999C18.8 24.6999 17.6 24.1999 16.7 23.2999C16.4 22.9999 15.9 22.9999 15.6 23.2999C15.3 23.5999 15.3 24.0999 15.6 24.3999C16.8 25.5999 18.4 26.2999 20.1 26.2999C23.6 26.2999 26.4 23.4999 26.4 19.9999C26.3 18.2999 25.7 16.6999 24.5 15.4999Z" fill="#2F2F2F" stroke="#2F2F2F" stroke-width="0.4" stroke-miterlimit="10"/>
<path d="M21.1001 13.8C20.7001 13.7 20.4001 13.7 20.0001 13.7C16.5001 13.7 13.7001 16.5 13.7001 20C13.7001 20.4 13.7001 20.7 13.8001 21.1C13.9001 21.5 14.2001 21.8 14.6001 21.8H14.7001C15.1001 21.7 15.4001 21.3 15.3001 20.9C15.3001 20.6 15.2001 20.4 15.2001 20.1C15.2001 17.5 17.3001 15.4 19.9001 15.4C20.2001 15.4 20.5001 15.4 20.7001 15.5C21.1001 15.6 21.5001 15.3 21.6001 14.9C21.8001 14.3 21.5001 13.9 21.1001 13.8Z" fill="#2F2F2F" stroke="#2F2F2F" stroke-width="0.4" stroke-miterlimit="10"/>
<path d="M38.8 19.4999C38.6 19.2999 34.3 14.2999 28.4 11.1999C28 10.9999 27.5 11.1999 27.3 11.4999C27.1 11.8999 27.3 12.3999 27.6 12.5999C32.1 14.9999 35.8 18.5999 37 19.9999C35.1 21.9999 27.7 29.4999 19.9 29.4999C17.2 29.4999 14.6 28.8999 11.9 27.5999C11.5 27.3999 11 27.5999 10.8 27.9999C10.6 28.3999 10.8 28.8999 11.2 29.0999C14 30.4999 16.9 31.1999 19.8 31.1999C29.5 31.1999 38.2 21.0999 38.6 20.5999C39 20.1999 39 19.7999 38.8 19.4999Z" fill="#2F2F2F" stroke="#2F2F2F" stroke-width="0.4" stroke-miterlimit="10"/>
<path d="M25.2001 9.7999C23.4001 9.1999 21.7001 8.8999 20 8.8999C10.3 8.8999 1.60005 18.9999 1.20005 19.4999C1.00005 19.7999 1.00005 20.1999 1.20005 20.4999C1.30005 20.6999 3.90005 24.3999 8.50005 27.3999C8.60005 27.4999 8.80005 27.4999 8.90005 27.4999C9.20005 27.4999 9.40005 27.3999 9.60005 27.0999C9.80005 26.6999 9.70005 26.1999 9.40005 25.9999C6.10005 23.7999 3.80005 21.0999 2.90005 19.9999C4.70005 17.9999 12.2001 10.4999 20.1 10.4999C21.6 10.4999 23.2 10.7999 24.8 11.2999C25.2 11.3999 25.7 11.1999 25.8 10.7999C25.8 10.3999 25.6 9.9999 25.2001 9.7999Z" fill="#2F2F2F" stroke="#2F2F2F" stroke-width="0.4" stroke-miterlimit="10"/>
<path d="M34 5.9999C33.7 5.6999 33.2 5.6999 32.9 5.9999L6.00002 32.8999C5.70002 33.1999 5.70002 33.6999 6.00002 33.9999C6.20002 34.1999 6.40002 34.1999 6.60002 34.1999C6.80002 34.1999 7.00002 34.0999 7.20002 33.9999L34 7.0999C34.3 6.7999 34.3 6.2999 34 5.9999Z" fill="#2F2F2F" stroke="#2F2F2F" stroke-width="0.4" stroke-miterlimit="10"/>
</svg>
