<svg width="32" height="32" viewBox="0 0 32 32" fill="none" xmlns="http://www.w3.org/2000/svg">
<path d="M27.8155 2.5H26.3386V0H23.877V2.5H7.6308V0H5.16925V2.5H3.69232C1.65638 2.5 0 4.18225 0 6.25V28.25C0 30.3178 1.65638 32 3.69232 32H27.8155C29.8514 32 31.5078 30.3178 31.5078 28.25V6.25C31.5078 4.18225 29.8514 2.5 27.8155 2.5ZM29.0463 28.25C29.0463 28.9393 28.4941 29.5 27.8155 29.5H3.69232C3.01367 29.5 2.46155 28.9393 2.46155 28.25V11.75H29.0463V28.25ZM29.0463 9.25H2.46155V6.25C2.46155 5.56075 3.01367 5 3.69232 5H5.16925V7.5H7.6308V5H23.877V7.5H26.3386V5H27.8155C28.4941 5 29.0463 5.56075 29.0463 6.25V9.25Z" fill="#4E4E4E"/>
<path d="M7.13928 13.5649H4.67773V16.0649H7.13928V13.5649Z" fill="#4E4E4E"/>
<path d="M12.0612 13.5649H9.59961V16.0649H12.0612V13.5649Z" fill="#4E4E4E"/>
<path d="M16.984 13.5649H14.5225V16.0649H16.984V13.5649Z" fill="#4E4E4E"/>
<path d="M21.9088 13.5649H19.4473V16.0649H21.9088V13.5649Z" fill="#4E4E4E"/>
<path d="M26.8307 13.5649H24.3691V16.0649H26.8307V13.5649Z" fill="#4E4E4E"/>
<path d="M7.13928 18.5649H4.67773V21.0649H7.13928V18.5649Z" fill="#4E4E4E"/>
<path d="M12.0612 18.5649H9.59961V21.0649H12.0612V18.5649Z" fill="#4E4E4E"/>
<path d="M16.984 18.5649H14.5225V21.0649H16.984V18.5649Z" fill="#4E4E4E"/>
<path d="M21.9088 18.5649H19.4473V21.0649H21.9088V18.5649Z" fill="#4E4E4E"/>
<path d="M7.13928 23.5649H4.67773V26.0649H7.13928V23.5649Z" fill="#4E4E4E"/>
<path d="M11.4615 23.5649H9V26.0649H11.4615V23.5649Z" fill="#4E4E4E"/>
<path d="M16.984 23.5649H14.5225V26.0649H16.984V23.5649Z" fill="#4E4E4E"/>
<path d="M21.9088 23.5649H19.4473V26.0649H21.9088V23.5649Z" fill="#4E4E4E"/>
<path d="M26.8307 18.5649H24.3691V21.0649H26.8307V18.5649Z" fill="#4E4E4E"/>
</svg>
