<svg width="32" height="32" viewBox="0 0 32 32" fill="none" xmlns="http://www.w3.org/2000/svg">
<path d="M24.75 8.5C25.4404 8.5 26 7.9404 26 7.25C26 6.5596 25.4404 6 24.75 6C24.0596 6 23.5 6.5596 23.5 7.25C23.5 7.9404 24.0596 8.5 24.75 8.5Z" fill="#4E4E4E" stroke="#4E4E4E"/>
<path d="M7.25 23C7.9404 23 8.5 22.4404 8.5 21.75C8.5 21.0596 7.9404 20.5 7.25 20.5C6.5596 20.5 6 21.0596 6 21.75C6 22.4404 6.5596 23 7.25 23Z" fill="#4E4E4E" stroke="#4E4E4E"/>
<path d="M26.0254 21.4933H19.002C17.4715 21.4933 16.2266 20.2482 16.2266 18.7177C16.2266 17.1872 17.4715 15.9421 19.002 15.9421H24.8359V15.1603L28.8408 11.1593C29.9108 10.0903 30.5 8.66883 30.5 7.1571C30.5 5.64515 29.9108 4.2237 28.8408 3.15473H28.8406C26.6325 0.948424 23.0394 0.948424 20.831 3.15473C19.7611 4.2237 19.1719 5.64515 19.1719 7.1571C19.1719 8.66883 19.7611 10.0903 20.831 11.1593L23.9173 14.2427H19.002C16.5345 14.2427 14.5273 16.2501 14.5273 18.7177C14.5273 21.1851 16.5345 23.1927 19.002 23.1927H26.0254C27.5558 23.1927 28.8008 24.4378 28.8008 25.9683V26.025C28.8008 27.5553 27.5558 28.8006 26.0254 28.8006H8.0827L11.169 25.7172C12.2389 24.6482 12.8281 23.2268 12.8281 21.715C12.8281 20.2031 12.2389 18.7816 11.169 17.7127H11.1687C8.96063 15.5064 5.36749 15.5064 3.15917 17.7127C2.0892 18.7816 1.5 20.2031 1.5 21.715C1.5 23.2268 2.0892 24.6482 3.15917 25.7172L7.16406 29.7182V30.5H26.0254C28.4928 30.5 30.5 28.4924 30.5 26.025V25.9683C30.5 23.5007 28.4928 21.4933 26.0254 21.4933ZM20.8711 7.1571C20.8711 6.09942 21.2833 5.1048 22.032 4.3569C22.8051 3.58466 23.8204 3.19854 24.8359 3.19854C25.8515 3.19854 26.8668 3.58466 27.6399 4.3569C28.3886 5.10502 28.8008 6.09942 28.8008 7.1571C28.8008 8.21478 28.3886 9.20918 27.6399 9.95708L24.8359 12.7584L22.032 9.95708C21.2833 9.20918 20.8711 8.21478 20.8711 7.1571ZM4.36013 24.515C3.61141 23.7671 3.19922 22.7727 3.19922 21.715C3.19922 20.6574 3.61141 19.6627 4.36013 18.9148C5.13319 18.1426 6.14851 17.7565 7.16406 17.7565C8.17961 17.7565 9.19494 18.1426 9.96799 18.9148C10.7167 19.663 11.1289 20.6574 11.1289 21.715C11.1289 22.7727 10.7167 23.7671 9.96799 24.515L7.16406 27.3163L4.36013 24.515Z" fill="#4E4E4E"/>
</svg>
