<svg width="32" height="32" viewBox="0 0 32 32" fill="none" xmlns="http://www.w3.org/2000/svg">
<path fill-rule="evenodd" clip-rule="evenodd" d="M6.4 10H4.26667V12H6.4V10ZM14.9333 8H12.8V10H14.9333V8ZM19.2 8H17.0667V10H19.2V8ZM23.4667 8H21.3333V10H23.4667V8ZM14.9333 4H12.8V6H14.9333V4ZM19.2 4H17.0667V6H19.2V4ZM23.4667 4H21.3333V6H23.4667V4ZM14.9333 16H12.8V18H14.9333V16ZM19.2 16H17.0667V18H19.2V16ZM23.4667 16H21.3333V18H23.4667V16ZM14.9333 20H12.8V22H14.9333V20ZM23.4667 20H21.3333V22H23.4667V20ZM14.9333 24H12.8V26H14.9333V24ZM23.4667 24H21.3333V26H23.4667V24ZM14.9333 12H12.8V14H14.9333V12ZM19.2 12H17.0667V14H19.2V12ZM23.4667 12H21.3333V14H23.4667V12ZM6.4 14H4.26667V16H6.4V14ZM6.4 18H4.26667V20H6.4V18ZM6.4 22H4.26667V24H6.4V22ZM6.4 26H4.26667V28H6.4V26ZM19.2 20H17.0667V22H19.2V20ZM29.8667 14H27.7333V2C27.7333 0.8945 26.7792 0 25.6 0H10.6667C9.48747 0 8.53333 0.8945 8.53333 2V6H2.13333C0.954133 6 0 6.8945 0 8V30C0 31.1055 0.954133 32 2.13333 32H29.8667C31.0459 32 32 31.1055 32 30V16C32 14.8945 31.0459 14 29.8667 14ZM8.53333 30H2.13333V8H8.53333V30ZM25.6 30H19.2V24H17.0667V30H10.6667V2H25.6V30ZM29.8667 30H27.7333V28H29.8667V30ZM29.8667 26H27.7333V24H29.8667V26ZM29.8667 22H27.7333V20H29.8667V22ZM29.8667 18H27.7333V16H29.8667V18Z" fill="#4E4E4E"/>
</svg>
