<svg width="32" height="32" viewBox="0 0 32 32" fill="none" xmlns="http://www.w3.org/2000/svg">
<path d="M27.3137 4.68625C24.2917 1.66431 20.2738 0 16 0C11.7262 0 7.70831 1.66431 4.68625 4.68625C1.66431 7.70831 0 11.7262 0 16C0 20.2738 1.66431 24.2917 4.68625 27.3137C7.70831 30.3357 11.7262 32 16 32C18.9258 32 21.7886 31.2027 24.2788 29.6942C24.8693 29.3365 25.0581 28.5679 24.7004 27.9774C24.3428 27.3869 23.574 27.1982 22.9836 27.5559C20.8839 28.8278 18.4691 29.5 16 29.5C8.55606 29.5 2.5 23.4439 2.5 16C2.5 8.55606 8.55606 2.5 16 2.5C23.4439 2.5 29.5 8.55606 29.5 16C29.5 18.6618 28.7084 21.2528 27.2108 23.4928C26.8271 24.0667 26.9813 24.843 27.5553 25.2267C28.1292 25.6104 28.9054 25.4561 29.2891 24.8822C31.0626 22.2296 32 19.1582 32 16C32 11.7262 30.3357 7.70831 27.3137 4.68625Z" fill="#2F2F2F"/>
<path d="M16 4.75C15.3096 4.75 14.75 5.30963 14.75 6V15.4823L10.1664 20.0659C9.67819 20.554 9.67819 21.3454 10.1664 21.8336C10.4104 22.0777 10.7303 22.1998 11.0502 22.1998C11.3702 22.1998 11.6901 22.0777 11.9341 21.8336L16.8839 16.8839C17.1183 16.6495 17.25 16.3315 17.25 16V6C17.25 5.30963 16.6904 4.75 16 4.75Z" fill="#2F2F2F"/>
</svg>
