<svg width="32" height="32" viewBox="0 0 32 32" fill="none" xmlns="http://www.w3.org/2000/svg">
<path d="M27.9353 9.70399L28.1691 10.1459L28.6111 9.91207L30.3807 8.97574L30.8227 8.74188L30.5888 8.29992C30.2457 7.65153 29.86 7.02657 29.4344 6.42912L29.1443 6.02178L28.737 6.31203L27.1056 7.47468L26.6979 7.76519L26.9889 8.1725C27.3381 8.66135 27.6543 9.17295 27.9353 9.70399Z" fill="#4E4E4E" stroke="#4E4E4E"/>
<path d="M25.8483 6.77901L26.1901 7.14325L26.5547 6.80171L28.0159 5.43276L28.381 5.09072L28.0387 4.72582C27.537 4.19091 27.0009 3.68927 26.4338 3.22419L26.0471 2.90706L25.73 3.29384L24.4601 4.84304L24.143 5.22988L24.53 5.54683C24.9958 5.92839 25.4362 6.33996 25.8483 6.77901Z" fill="#4E4E4E" stroke="#4E4E4E"/>
<path d="M31.019 10.4846H31.017L29.1382 11.1745C31.8144 18.4451 28.0894 26.5085 20.8183 29.1844C13.5472 31.8603 5.48333 28.1357 2.80722 20.865C0.131102 13.5944 3.85603 5.53115 11.1271 2.85515C15.1665 1.3686 19.6647 1.81843 23.3296 4.07539L24.3821 2.37297C16.8557 -2.25542 7.00184 0.0935401 2.37313 7.61955C-2.25558 15.1456 0.0935466 24.9986 7.62008 29.627C15.1466 34.2554 25.0004 31.9065 29.6291 24.3804C32.1966 20.2059 32.7088 15.0849 31.019 10.4846Z" fill="#4E4E4E"/>
<path d="M19.9785 16.0134C22.1909 16.0134 23.9844 14.22 23.9844 12.0077C23.9844 9.79547 22.1909 8.00204 19.9785 8.00204H12.968V14.0106H10.222V16.0134H12.968V18.0163H10.222V20.0191H12.968V24.0248H14.971V20.0191H17.7776V18.0163H14.971V16.0134H19.9785ZM14.971 10.0049H19.9785C21.0847 10.0049 21.9815 10.9016 21.9815 12.0077C21.9815 13.1139 21.0847 14.0106 19.9785 14.0106H14.971V10.0049Z" fill="#4E4E4E"/>
</svg>
