<svg width="32" height="32" viewBox="0 0 32 32" fill="none" xmlns="http://www.w3.org/2000/svg">
<g clip-path="url(#clip0)">
<path fill-rule="evenodd" clip-rule="evenodd" d="M31.2725 14.5353L25.9288 8.46964C25.7545 8.27193 25.5029 8.1584 25.2385 8.1584H20.7887V4.41243C20.7887 3.90849 20.3778 3.5 19.8711 3.5H0.917968C0.411224 3.5 0.00030467 3.90849 0.00030467 4.41243V5.64361V7.11815H1.83546V5.32477H18.9531V21.136H9.52802C9.12448 19.6743 7.7771 18.5969 6.18057 18.5969C4.58404 18.5969 3.23683 19.6743 2.8332 21.136H1.83546L1.83515 11.6126H0L0.00030467 19.2963V21.1212V22.0484C0.00030467 22.5524 0.411224 22.9609 0.917968 22.9609H2.83338C3.23692 24.4226 4.58422 25.5 6.18075 25.5C7.77728 25.5 9.12457 24.4226 9.5282 22.9609H21.7729C22.1764 24.4226 23.5237 25.4999 25.1203 25.4999C26.7168 25.4999 28.0641 24.4225 28.4677 22.9608H30.5823C31.0891 22.9608 31.5 22.5523 31.5 22.0484V15.1364C31.4999 14.9153 31.419 14.7016 31.2725 14.5353ZM4.54481 22.0484C4.54481 22.9454 5.27865 23.6751 6.18075 23.6751C7.08284 23.6751 7.81677 22.9454 7.81677 22.0484C7.81677 21.1515 7.08284 20.4217 6.18075 20.4217C5.27865 20.4217 4.54481 21.1515 4.54481 22.0484ZM23.4841 22.0484C23.4841 22.9454 24.218 23.6751 25.1201 23.6751C26.0223 23.6751 26.7561 22.9454 26.7561 22.0484C26.7561 21.1515 26.0222 20.4217 25.1201 20.4217C24.218 20.4217 23.4841 21.1515 23.4841 22.0484ZM28.4675 21.136H29.6646L29.6645 15.4796L24.8222 9.98326H20.7885V21.136H21.7727C22.1764 19.6743 23.5236 18.5969 25.1201 18.5969C26.7166 18.5969 28.064 19.6743 28.4675 21.136Z" fill="#4E4E4E"/>
<path d="M36.5816 26.7499H25.7582C25.2508 26.7499 24.8394 27.1613 24.8394 27.6688C24.8394 28.1762 25.2508 28.5876 25.7582 28.5876H36.5816C37.089 28.5876 37.5004 28.1762 37.5004 27.6688C37.5004 27.1613 37.089 26.7499 36.5816 26.7499Z" fill="#4E4E4E"/>
<path d="M16.3884 29.9999H8.91931C8.41192 29.9999 8.00049 30.4113 8.00049 30.9188C8.00049 31.4262 8.41192 31.8376 8.91931 31.8376H16.3884C16.8958 31.8376 17.3072 31.4262 17.3072 30.9188C17.3072 30.4113 16.8959 29.9999 16.3884 29.9999Z" fill="#4E4E4E"/>
<path d="M9.36276 25.4999H1.56897C0.978943 25.4999 0.500488 25.9361 0.500488 26.4742C0.500488 27.0123 0.978943 27.4484 1.56897 27.4484H9.36276C9.95278 27.4484 10.4312 27.0123 10.4312 26.4742C10.4312 25.9361 9.95289 25.4999 9.36276 25.4999Z" fill="#4E4E4E"/>
</g>
<defs>
<clipPath id="clip0">
<rect width="32" height="32" fill="white"/>
</clipPath>
</defs>
</svg>
