<svg width="18" height="18" viewBox="0 0 18 18" fill="none" xmlns="http://www.w3.org/2000/svg">
<g clip-path="url(#clip0)">
<path d="M17.5966 14.2253L14.8168 11.4452C14.2631 10.8937 13.3462 10.9105 12.7732 11.4837L11.3727 12.8838C11.2842 12.8351 11.1926 12.7841 11.0963 12.7301C10.212 12.2401 9.00151 11.5684 7.72778 10.2938C6.45026 9.0164 5.778 7.8041 5.28647 6.91914C5.2346 6.82539 5.18491 6.73499 5.13583 6.64915L6.07576 5.71061L6.53787 5.24794C7.11172 4.67393 7.12755 3.75727 6.57515 3.2042L3.79533 0.423766C3.24294 -0.128526 2.32561 -0.111771 1.75175 0.46224L0.968305 1.25019L0.989714 1.27144C0.727014 1.60664 0.507493 1.99325 0.344133 2.41015C0.193546 2.807 0.0997904 3.18569 0.0569206 3.56516C-0.310136 6.60814 1.08042 9.3892 4.8542 13.163C10.0707 18.3792 14.2746 17.9851 14.4559 17.9659C14.8509 17.9187 15.2294 17.8243 15.6141 17.6749C16.0274 17.5135 16.4137 17.2943 16.7487 17.0321L16.7659 17.0473L17.5595 16.2701C18.1322 15.6962 18.1487 14.7793 17.5966 14.2253Z" fill="#FFDF00"/>
</g>
<defs>
<clipPath id="clip0">
<rect width="18" height="18" fill="white"/>
</clipPath>
</defs>
</svg>
