<svg width="42" height="42" viewBox="0 0 42 42" fill="none" xmlns="http://www.w3.org/2000/svg">
<path d="M21 0C12.8582 0 6.23438 6.62386 6.23438 14.7656C6.23438 17.5165 6.99636 20.201 8.43847 22.53L20.1595 41.4183C20.384 41.7802 20.7796 42 21.205 42C21.2083 42 21.2115 42 21.2148 42C21.6439 41.9966 22.0402 41.77 22.2607 41.4018L33.6829 22.3305C35.0455 20.0507 35.7656 17.4348 35.7656 14.7656C35.7656 6.62386 29.1418 0 21 0ZM31.571 21.0671L21.1864 38.4059L10.5301 21.2335C9.32974 19.2949 8.67891 17.0584 8.67891 14.7656C8.67891 7.98082 14.2152 2.44453 21 2.44453C27.7848 2.44453 33.3129 7.98082 33.3129 14.7656C33.3129 16.9904 32.705 19.1697 31.571 21.0671Z" fill="#FEDE00"/>
<path d="M21 7.38281C16.9291 7.38281 13.6172 10.6947 13.6172 14.7656C13.6172 18.8105 16.8752 22.1484 21 22.1484C25.1756 22.1484 28.3828 18.766 28.3828 14.7656C28.3828 10.6947 25.0709 7.38281 21 7.38281ZM21 19.7039C18.2719 19.7039 16.0617 17.4864 16.0617 14.7656C16.0617 12.0517 18.2861 9.82734 21 9.82734C23.7139 9.82734 25.9301 12.0517 25.9301 14.7656C25.9301 17.4467 23.7713 19.7039 21 19.7039Z" fill="#FEDE00"/>
</svg>
