<svg width="42" height="42" viewBox="0 0 42 42" fill="none" xmlns="http://www.w3.org/2000/svg">
<path d="M21 0C9.4206 0 0 9.42073 0 21.0001C0 32.5795 9.4206 42 21 42C32.5794 42 42 32.5795 42 21.0001C42 9.42073 32.5794 0 21 0ZM21 38.1818C11.5258 38.1818 3.81818 30.4742 3.81818 21.0001C3.81818 11.5261 11.5258 3.81818 21 3.81818C30.4742 3.81818 38.1818 11.5261 38.1818 21.0001C38.1818 30.4742 30.4741 38.1818 21 38.1818Z" fill="#FEDE00"/>
<path d="M20.9997 8.90912C19.5964 8.90912 18.4548 10.0515 18.4548 11.4557C18.4548 12.8586 19.5964 14 20.9997 14C22.403 14 23.5447 12.8586 23.5447 11.4557C23.5447 10.0515 22.403 8.90912 20.9997 8.90912Z" fill="#FEDE00"/>
<path d="M21 17.8182C19.9457 17.8182 19.0909 18.6729 19.0909 19.7273V31.1818C19.0909 32.2361 19.9457 33.0909 21 33.0909C22.0543 33.0909 22.9091 32.2361 22.9091 31.1818V19.7273C22.9091 18.6729 22.0543 17.8182 21 17.8182Z" fill="#FEDE00"/>
</svg>
