<svg width="16" height="14" viewBox="0 0 16 14" fill="none" xmlns="http://www.w3.org/2000/svg">
<path d="M14.9366 4.03269C15.0699 4.19345 15.1198 4.38636 15.0865 4.61143L14.4537 8.11606C14.4314 8.29831 14.3454 8.44831 14.1955 8.5662C14.0456 8.68409 13.8763 8.74304 13.6875 8.74304H4.46087L4.27767 9.73976H13.0713C13.2823 9.73976 13.4654 9.8121 13.6209 9.95679C13.7764 10.1015 13.854 10.281 13.854 10.4953C13.854 10.7097 13.7764 10.8892 13.6209 11.0339C13.4654 11.1786 13.2823 11.2509 13.0713 11.2509H3.34501C3.11184 11.2509 2.91199 11.1598 2.74544 10.9777C2.59 10.7955 2.52893 10.5864 2.56224 10.3507L2.97861 8.16437L2.34573 2.02322L0.547029 1.47663C0.33607 1.41232 0.183403 1.28905 0.0890264 1.10687C-0.00534994 0.924652 -0.0247804 0.731764 0.0307351 0.528132C0.0973537 0.324501 0.227815 0.177136 0.422119 0.0860373C0.616423 -0.00506102 0.813503 -0.0238166 1.01336 0.0297707L3.3117 0.737123C3.45604 0.779993 3.5754 0.860373 3.66977 0.978265C3.76415 1.09616 3.82244 1.23015 3.84465 1.3802L3.97789 2.60199L14.4037 3.72732C14.6369 3.75939 14.8145 3.86121 14.9366 4.03269ZM4.52752 11.6689C4.86061 11.6689 5.14374 11.7814 5.3769 12.0066C5.61007 12.2315 5.72665 12.5049 5.72665 12.8264C5.72665 13.1479 5.61007 13.4239 5.3769 13.6544C5.14374 13.8848 4.86061 14 4.52752 14C4.19442 14 3.91129 13.8848 3.67813 13.6544C3.44496 13.424 3.32838 13.148 3.32838 12.8264C3.32838 12.5049 3.44496 12.2316 3.67813 12.0066C3.91127 11.7814 4.1944 11.6689 4.52752 11.6689ZM11.639 11.6689C11.9721 11.6689 12.2553 11.7814 12.4884 12.0066C12.7215 12.2315 12.8382 12.5049 12.8382 12.8264C12.8382 13.1479 12.7216 13.4239 12.4884 13.6544C12.2553 13.8848 11.9721 14 11.639 14C11.3059 14 11.0227 13.8848 10.7897 13.6544C10.5565 13.424 10.4398 13.148 10.4398 12.8264C10.4398 12.5049 10.5564 12.2316 10.7897 12.0066C11.0228 11.7814 11.3059 11.6689 11.639 11.6689Z" fill="#0068B4"/>
</svg>
