<svg width="15" height="14" viewBox="0 0 15 14" fill="none" xmlns="http://www.w3.org/2000/svg">
<path d="M14.841 4.03269C14.9734 4.19345 15.023 4.38636 14.99 4.61143L14.3611 8.11606C14.3391 8.29831 14.2536 8.44831 14.1046 8.5662C13.9557 8.68409 13.7875 8.74304 13.5999 8.74304H4.43231L4.25028 9.73976H12.9877C13.1973 9.73976 13.3792 9.8121 13.5337 9.95679C13.6882 10.1015 13.7654 10.281 13.7654 10.4953C13.7654 10.7097 13.6882 10.8892 13.5337 11.0339C13.3792 11.1786 13.1973 11.2509 12.9877 11.2509H3.32359C3.09191 11.2509 2.89334 11.1598 2.72786 10.9777C2.57341 10.7955 2.51273 10.5864 2.54583 10.3507L2.95953 8.16437L2.3307 2.02322L0.543512 1.47663C0.333904 1.41232 0.182213 1.28905 0.0884407 1.10687C-0.00533164 0.924652 -0.0246377 0.731764 0.0305225 0.528132C0.0967147 0.324501 0.226341 0.177136 0.419402 0.0860373C0.612463 -0.00506102 0.808281 -0.0238166 1.00686 0.0297707L3.29049 0.737123C3.43391 0.779993 3.5525 0.860373 3.64627 0.978265C3.74005 1.09616 3.79796 1.23015 3.82003 1.3802L3.95241 2.60199L14.3115 3.72732C14.5432 3.75939 14.7197 3.86121 14.841 4.03269ZM4.49853 11.6689C4.82949 11.6689 5.1108 11.7814 5.34248 12.0066C5.57415 12.2315 5.68999 12.5049 5.68999 12.8264C5.68999 13.1479 5.57415 13.4239 5.34248 13.6544C5.1108 13.8848 4.82949 14 4.49853 14C4.16756 14 3.88625 13.8848 3.65458 13.6544C3.4229 13.424 3.30707 13.148 3.30707 12.8264C3.30707 12.5049 3.4229 12.2316 3.65458 12.0066C3.88622 11.7814 4.16754 11.6689 4.49853 11.6689ZM11.5645 11.6689C11.8954 11.6689 12.1768 11.7814 12.4085 12.0066C12.6401 12.2315 12.756 12.5049 12.756 12.8264C12.756 13.1479 12.6401 13.4239 12.4085 13.6544C12.1768 13.8848 11.8954 14 11.5645 14C11.2336 14 10.9522 13.8848 10.7206 13.6544C10.4889 13.424 10.373 13.148 10.373 12.8264C10.373 12.5049 10.4889 12.2316 10.7206 12.0066C10.9522 11.7814 11.2336 11.6689 11.5645 11.6689Z" fill="white"/>
</svg>
