<svg width="42" height="42" viewBox="0 0 42 42" fill="none" xmlns="http://www.w3.org/2000/svg">
<g clip-path="url(#clip0)">
<path d="M41.196 22.4454C41.8667 21.7233 42.2754 20.7701 42.2754 19.7272C42.2754 17.4793 40.3786 15.65 38.0478 15.65H29.8427C30.6553 13.2717 31.0019 10.1159 31.0019 8.76319V7.40503C31.0019 4.40783 28.4729 1.96875 25.3652 1.96875H23.9561C23.3097 1.96875 22.746 2.39278 22.5891 2.99802L21.8216 5.95988C20.7459 10.1078 17.331 14.6842 13.7968 15.5159C13.1777 14.0047 11.6492 12.9319 9.86426 12.9319H1.40918C0.631312 12.9319 0 13.5408 0 14.291V38.7542C0 39.5044 0.631312 40.1133 1.40918 40.1133H9.86426C11.5449 40.1133 12.9992 39.1628 13.6803 37.7893L18.5223 39.3459C20.1052 39.8551 21.7549 40.1133 23.4243 40.1133H35.2295C37.5603 40.1133 39.457 38.284 39.457 36.0361C39.457 35.506 39.3518 34.9987 39.1602 34.5339C40.9526 34.0618 42.2754 32.4771 42.2754 30.5998C42.2754 29.5569 41.8667 28.6038 41.196 27.8817C41.8667 27.1595 42.2754 26.2064 42.2754 25.1635C42.2754 24.1207 41.8667 23.1675 41.196 22.4454ZM11.2734 36.0361C11.2734 36.7854 10.6412 37.3951 9.86426 37.3951H2.81836V15.65H9.86426C10.6412 15.65 11.2734 16.2598 11.2734 17.0091V36.0361ZM35.2295 23.8045H38.0478C38.8248 23.8045 39.457 24.4142 39.457 25.1635C39.457 25.9128 38.8248 26.5226 38.0478 26.5226H35.2295C34.4516 26.5226 33.8203 27.1315 33.8203 27.8817C33.8203 28.6319 34.4516 29.2407 35.2295 29.2407H38.0478C38.8248 29.2407 39.457 29.8505 39.457 30.5998C39.457 31.3491 38.8248 31.9589 38.0478 31.9589H35.2295C34.4516 31.9589 33.8203 32.5677 33.8203 33.3179C33.8203 34.0681 34.4516 34.677 35.2295 34.677C36.0064 34.677 36.6387 35.2868 36.6387 36.0361C36.6387 36.7854 36.0064 37.3951 35.2295 37.3951H23.4243C22.0584 37.3951 20.7084 37.184 19.4129 36.7673L14.0918 35.0566V18.2395C16.3023 17.8345 18.4659 16.4845 20.419 14.2747C22.3261 12.1165 23.8724 9.25517 24.5554 6.61948L25.0562 4.68689H25.3652C26.9191 4.68689 28.1836 5.90643 28.1836 7.40503V8.76319C28.1836 10.588 27.5917 14.088 26.8345 15.65H23.9561C23.1782 15.65 22.5469 16.2589 22.5469 17.0091C22.5469 17.7593 23.1782 18.3682 23.9561 18.3682H38.0478C38.8248 18.3682 39.457 18.9779 39.457 19.7272C39.457 20.4765 38.8248 21.0863 38.0478 21.0863H35.2295C34.4516 21.0863 33.8203 21.6952 33.8203 22.4454C33.8203 23.1956 34.4516 23.8045 35.2295 23.8045Z" fill="#FEDE00"/>
<path d="M8.69531 37.0781C9.37488 37.0781 9.92578 36.5272 9.92578 35.8477C9.92578 35.1681 9.37488 34.6172 8.69531 34.6172C8.01574 34.6172 7.46484 35.1681 7.46484 35.8477C7.46484 36.5272 8.01574 37.0781 8.69531 37.0781Z" fill="#FEDE00"/>
</g>
<defs>
<clipPath id="clip0">
<rect width="42" height="42" fill="white"/>
</clipPath>
</defs>
</svg>
