<svg width="30" height="30" viewBox="0 0 30 30" fill="none" xmlns="http://www.w3.org/2000/svg">
<path d="M19.4706 7.98132H10.5293C9.1021 7.98132 7.94098 9.14245 7.94098 10.5696V19.511C7.94098 20.9382 9.1021 22.0996 10.5293 22.0996H19.4706C20.8978 22.0996 22.0593 20.9385 22.0593 19.511V10.5696C22.0593 9.14245 20.8982 7.98132 19.4706 7.98132ZM15 19.6881C12.4374 19.6881 10.3525 17.6032 10.3525 15.0403C10.3525 12.4777 12.4374 10.3928 15 10.3928C17.5629 10.3928 19.6478 12.4777 19.6478 15.0403C19.6478 17.6029 17.5625 19.6881 15 19.6881ZM19.7972 11.3537C19.1906 11.3537 18.6972 10.8604 18.6972 10.2541C18.6972 9.6478 19.1906 9.15448 19.7972 9.15448C20.4035 9.15448 20.8968 9.6478 20.8968 10.2541C20.8968 10.8604 20.4035 11.3537 19.7972 11.3537Z" fill="white"/>
<path d="M14.9999 12.3566C13.5206 12.3566 12.316 13.5605 12.316 15.0398C12.316 16.5198 13.5206 17.724 14.9999 17.724C16.4799 17.724 17.6834 16.5198 17.6834 15.0398C17.6834 13.5608 16.4795 12.3566 14.9999 12.3566Z" fill="white"/>
<path d="M15 0C6.71606 0 0 6.71606 0 15C0 23.2839 6.71606 30 15 30C23.2839 30 30 23.2839 30 15C30 6.71606 23.2839 0 15 0ZM24.0229 19.5111C24.0229 22.0215 21.9811 24.0634 19.4707 24.0634H10.5293C8.01923 24.0634 5.97707 22.0215 5.97707 19.5111V10.5698C5.97707 8.05967 8.01923 6.01751 10.5293 6.01751H19.4707C21.9811 6.01751 24.0229 8.05967 24.0229 10.5698V19.5111Z" fill="white"/>
</svg>
