<svg width="42" height="42" viewBox="0 0 42 42" fill="none" xmlns="http://www.w3.org/2000/svg">
<path d="M38.3086 0C37.7129 0 4.28485 0 3.69141 0C1.65601 0 0 1.65601 0 3.69141V5.56627C0 8.60303 1.04462 11.5815 2.94191 13.9527C4.51973 15.925 6.76405 17.4698 9.26152 18.3023L10.5657 18.7368C12.0804 21.2048 14.4561 23.1059 17.3086 24.0089V25.9219C17.3086 26.6002 16.7565 27.1523 16.0781 27.1523C14.0427 27.1523 12.3867 28.8083 12.3867 30.8438V32.0742H11.1562C10.4766 32.0742 9.92578 32.625 9.92578 33.3047V39.5391H8.69531C8.01567 39.5391 7.46484 40.0899 7.46484 40.7695C7.46484 41.4492 8.01567 42 8.69531 42H33.3047C33.9843 42 34.5352 41.4492 34.5352 40.7695C34.5352 40.0899 33.9843 39.5391 33.3047 39.5391H32.0742V33.3047C32.0742 32.625 31.5234 32.0742 30.8438 32.0742H29.6133V30.8438C29.6133 28.8083 27.9573 27.1523 25.9219 27.1523C25.2435 27.1523 24.6914 26.6002 24.6914 25.9219V24.0089C27.5407 23.1069 29.9142 21.2092 31.4292 18.7451L32.8045 18.3074C32.8096 18.3058 32.8151 18.3039 32.8202 18.3023C35.2808 17.4819 37.438 15.9778 39.0581 13.9527C40.9554 11.5815 42 8.60303 42 5.56627V3.69141C42 1.65601 40.344 0 38.3086 0ZM4.86356 12.4152C3.31425 10.4785 2.46094 8.04643 2.46094 5.56627V3.69141C2.46094 3.01305 3.01305 2.46094 3.69141 2.46094H7.59398L8.84624 13.7313C8.91962 14.3904 9.04747 15.0341 9.22243 15.659C7.50169 14.9358 5.97546 13.805 4.86356 12.4152ZM12.3867 39.5391V34.5352H29.6133V39.5391H12.3867ZM23.185 21.8709C22.6262 21.9994 22.2305 22.4967 22.2305 23.07V25.9219C22.2305 27.9573 23.8865 29.6133 25.9219 29.6133C26.6002 29.6133 27.1523 30.1654 27.1523 30.8438V32.0742H14.8477V30.8438C14.8477 30.1654 15.3998 29.6133 16.0781 29.6133C18.1135 29.6133 19.7695 27.9573 19.7695 25.9219V23.07C19.7695 22.4967 19.3738 21.9994 18.815 21.8709C14.7708 20.9404 11.7478 17.5601 11.2921 13.4595L10.07 2.46094H31.93L30.7079 13.4595C30.2522 17.5601 27.2292 20.9404 23.185 21.8709ZM39.5391 5.56627C39.5391 8.04643 38.6857 10.4785 37.1364 12.4152C35.9749 13.8674 34.4752 14.9909 32.7667 15.6971C32.9474 15.0601 33.0788 14.4039 33.1538 13.7313L34.406 2.46094H38.3086C38.987 2.46094 39.5391 3.01305 39.5391 3.69141V5.56627Z" fill="#FEDE00"/>
<path d="M26.0946 8.42551L23.3295 8.03329L22.0981 5.59735C21.8889 5.18303 21.464 4.92188 21 4.92188C20.536 4.92188 20.1111 5.18303 19.9019 5.59735L18.6704 8.03329L15.9051 8.42551C15.4382 8.49184 15.0502 8.81932 14.9063 9.26857C14.7624 9.71782 14.888 10.21 15.2296 10.5349L17.2131 12.4226L16.7462 15.08C16.6655 15.5401 16.852 16.0063 17.2278 16.2835C17.6047 16.561 18.1052 16.6004 18.5198 16.3877L21 15.1146L23.4798 16.3877C23.8954 16.6011 24.396 16.5607 24.7718 16.2835C25.148 16.006 25.3345 15.5401 25.2538 15.08L24.7869 12.4226L26.7701 10.5349C27.112 10.2097 27.2376 9.71782 27.0937 9.26857C26.9498 8.81932 26.5618 8.49184 26.0946 8.42551ZM22.6127 11.0944C22.3141 11.3786 22.1776 11.793 22.249 12.1989L22.4016 13.068L21.5617 12.637C21.2092 12.4559 20.7907 12.4559 20.4379 12.637L19.5981 13.068L19.7509 12.1989C19.8221 11.793 19.6856 11.3786 19.3872 11.0944L18.7678 10.5051L19.6519 10.3795C20.0502 10.3231 20.3956 10.0754 20.577 9.71654L21 8.87988L21.4226 9.71622C21.6043 10.0754 21.9498 10.3231 22.3481 10.3795L23.2321 10.5048L22.6127 11.0944Z" fill="#FEDE00"/>
</svg>
