<svg width="42" height="42" viewBox="0 0 42 42" fill="none" xmlns="http://www.w3.org/2000/svg">
<path d="M36.2258 0H5.77423C2.59039 0 0 2.81503 0 6.27621V26.532C0 29.9854 2.57911 32.7959 5.75372 32.8082V42L17.9069 32.8082H36.2258C39.4096 32.8082 42 29.9926 42 26.532V6.27621C42 2.81503 39.4096 0 36.2258 0ZM39.5391 26.532C39.5391 28.5175 38.0528 30.1333 36.2258 30.1333H17.1348L8.21466 36.8801V30.1333H5.77423C3.94724 30.1333 2.46094 28.5175 2.46094 26.532V6.27621C2.46094 4.29011 3.94724 2.67488 5.77423 2.67488H36.2258C38.0528 2.67488 39.5391 4.29011 39.5391 6.27621V26.532Z" fill="#FEDE00"/>
<path d="M7 8H35V11H7V8Z" fill="#FEDE00"/>
<path d="M7 14H35V17H7V14Z" fill="#FEDE00"/>
<path d="M7 20L22.5 20V23H7V20Z" fill="#FEDE00"/>
</svg>
