<svg width="32" height="32" viewBox="0 0 32 32" fill="none" xmlns="http://www.w3.org/2000/svg">
<path d="M28.2223 16.8888H3.77786C3.16452 16.8888 2.66675 16.2915 2.66675 15.5555C2.66675 14.8195 3.16452 14.2222 3.77786 14.2222H28.2223C28.8356 14.2222 29.3334 14.8195 29.3334 15.5555C29.3334 16.2915 28.8356 16.8888 28.2223 16.8888Z" fill="#2F2F2F"/>
<path d="M28.2223 7.111H3.77786C3.16452 7.111 2.66675 6.51367 2.66675 5.77767C2.66675 5.04167 3.16452 4.44434 3.77786 4.44434H28.2223C28.8356 4.44434 29.3334 5.04167 29.3334 5.77767C29.3334 6.51367 28.8356 7.111 28.2223 7.111Z" fill="#2F2F2F"/>
<path d="M28.2223 27.5556H3.77786C3.16452 27.5556 2.66675 26.9583 2.66675 26.2222C2.66675 25.4862 3.16452 24.8889 3.77786 24.8889H28.2223C28.8356 24.8889 29.3334 25.4862 29.3334 26.2222C29.3334 26.9583 28.8356 27.5556 28.2223 27.5556Z" fill="#2F2F2F"/>
</svg>
