<svg width="32" height="30" viewBox="0 0 32 30" fill="none" xmlns="http://www.w3.org/2000/svg">
<path d="M21.0644 25.3C21.1166 25.3086 21.1685 25.3129 21.2197 25.3129C21.6697 25.3129 22.0668 24.9879 22.1433 24.5293L23.0808 18.9043C23.1659 18.3937 22.8209 17.9106 22.3102 17.8255C21.7994 17.7401 21.3164 18.0853 21.2313 18.5961L20.2938 24.2211C20.2087 24.7318 20.5537 25.2149 21.0644 25.3Z" fill="#2F2F2F"/>
<path d="M9.91903 24.529C9.99547 24.9876 10.3926 25.3126 10.8427 25.3126C10.8938 25.3126 10.9457 25.3084 10.9979 25.2996C11.5087 25.2145 11.8537 24.7315 11.7685 24.2208L10.831 18.5958C10.7459 18.085 10.263 17.7401 9.75216 17.8251C9.24141 17.9103 8.89641 18.3933 8.98153 18.904L9.91903 24.529Z" fill="#2F2F2F"/>
<path d="M31.0625 10.3125H27.7631L20.5446 1.28936C20.2212 0.885177 19.6313 0.819489 19.2269 1.14299C18.8226 1.46643 18.757 2.05636 19.0805 2.46068L25.3619 10.3125H6.63806L12.9196 2.46068C13.243 2.05636 13.1774 1.46636 12.7732 1.14299C12.3688 0.819489 11.7789 0.885114 11.4555 1.28936L4.23694 10.3125H0.9375C0.41975 10.3125 0 10.7322 0 11.25V15C0 15.5177 0.41975 15.9375 0.9375 15.9375H2.10538L5.66113 28.3826C5.77606 28.7851 6.14394 29.0625 6.5625 29.0625H25.4375C25.8561 29.0625 26.2239 28.7851 26.3389 28.3826L29.8946 15.9375H31.0625C31.5802 15.9375 32 15.5177 32 15V11.25C32 10.7322 31.5802 10.3125 31.0625 10.3125ZM24.7304 27.1875H7.26963L4.05538 15.9375H27.9447L24.7304 27.1875ZM30.125 14.0625C26.9134 14.0625 4.9175 14.0625 1.875 14.0625V12.1875H30.125V14.0625Z" fill="#2F2F2F"/>
<path d="M16 25.3125C16.5178 25.3125 16.9375 24.8927 16.9375 24.375V18.75C16.9375 18.2322 16.5178 17.8125 16 17.8125C15.4822 17.8125 15.0625 18.2322 15.0625 18.75V24.375C15.0625 24.8928 15.4822 25.3125 16 25.3125Z" fill="#2F2F2F"/>
</svg>
