<svg width="24" height="24" viewBox="0 0 24 24" fill="none" xmlns="http://www.w3.org/2000/svg">
<g clip-path="url(#clip0)">
<path d="M15.7983 19.725C15.8375 19.7315 15.8764 19.7347 15.9148 19.7347C16.2523 19.7347 16.5502 19.4909 16.6075 19.147L17.3106 14.9283C17.3745 14.5452 17.1157 14.1829 16.7327 14.1191C16.3496 14.0551 15.9873 14.314 15.9235 14.6971L15.2204 18.9158C15.1565 19.2989 15.4153 19.6612 15.7983 19.725Z" fill="#474747"/>
<path d="M7.43924 19.1469C7.49657 19.4909 7.79442 19.7346 8.13196 19.7346C8.17035 19.7346 8.20926 19.7315 8.2484 19.7249C8.63146 19.6611 8.89021 19.2988 8.82637 18.9158L8.12324 14.697C8.0594 14.3139 7.6972 14.0552 7.31409 14.119C6.93102 14.1829 6.67227 14.5451 6.73612 14.9282L7.43924 19.1469Z" fill="#474747"/>
<path d="M23.2969 8.48437H20.8223L15.4084 1.71702C15.1659 1.41388 14.7234 1.36462 14.4202 1.60724C14.1169 1.84982 14.0677 2.29227 14.3104 2.59551L19.0215 8.48437H4.97855L9.68967 2.59551C9.93225 2.29227 9.88308 1.84977 9.57989 1.60724C9.27661 1.36462 8.83416 1.41384 8.59163 1.71702L3.1777 8.48437H0.703125C0.314812 8.48437 0 8.79918 0 9.18749V12C0 12.3883 0.314812 12.7031 0.703125 12.7031H1.57903L4.24584 22.0369C4.33205 22.3388 4.60795 22.5469 4.92188 22.5469H19.0781C19.392 22.5469 19.668 22.3388 19.7542 22.0369L22.421 12.7031H23.2969C23.6852 12.7031 24 12.3883 24 12V9.18749C24 8.79918 23.6852 8.48437 23.2969 8.48437ZM18.5478 21.1406H5.45222L3.04153 12.7031H20.9585L18.5478 21.1406ZM22.5938 11.2969C20.1851 11.2969 3.68813 11.2969 1.40625 11.2969V9.89062H22.5938V11.2969Z" fill="#474747"/>
<path d="M12 19.7344C12.3883 19.7344 12.7031 19.4196 12.7031 19.0312V14.8125C12.7031 14.4242 12.3883 14.1094 12 14.1094C11.6117 14.1094 11.2969 14.4242 11.2969 14.8125V19.0312C11.2969 19.4196 11.6117 19.7344 12 19.7344Z" fill="#474747"/>
</g>
<defs>
<clipPath id="clip0">
<rect width="24" height="24" fill="white"/>
</clipPath>
</defs>
</svg>
