<svg width="29" height="28" viewBox="0 0 29 28" fill="none" xmlns="http://www.w3.org/2000/svg">
<path d="M27.8522 25.319L20.2931 17.7599C21.7268 15.9899 22.5898 13.7396 22.5898 11.2896C22.5898 5.61001 17.9691 0.989258 12.2895 0.989258C6.60996 0.989258 1.98926 5.61001 1.98926 11.2896C1.98926 16.9691 6.61001 21.5899 12.2896 21.5899C14.7396 21.5899 16.9899 20.7268 18.7599 19.2931L26.319 26.8522C26.5308 27.0639 26.874 27.0639 27.0858 26.8522L27.8522 26.0857C28.0639 25.874 28.0639 25.5307 27.8522 25.319ZM12.2896 19.4214C7.80544 19.4214 4.15776 15.7737 4.15776 11.2896C4.15776 6.80544 7.80544 3.15776 12.2896 3.15776C16.7737 3.15776 20.4214 6.80544 20.4214 11.2896C20.4214 15.7737 16.7737 19.4214 12.2896 19.4214Z" fill="#99A2A6"/>
</svg>
