<svg width="33" height="33" viewBox="0 0 33 33" fill="none" xmlns="http://www.w3.org/2000/svg">
<path d="M30.9235 28.7019L24.0087 21.3501C25.7866 19.1896 26.7608 16.4712 26.7608 13.6413C26.7608 7.02933 21.4984 1.6499 15.0304 1.6499C8.56234 1.6499 3.29999 7.02933 3.29999 13.6413C3.29999 20.2532 8.56234 25.6326 15.0304 25.6326C17.4586 25.6326 19.7725 24.884 21.7509 23.4627L28.7182 30.8703C29.0094 31.1794 29.4011 31.3499 29.8209 31.3499C30.2182 31.3499 30.5951 31.1951 30.8812 30.9135C31.4891 30.3155 31.5085 29.3239 30.9235 28.7019ZM15.0304 4.77808C19.8113 4.77808 23.7007 8.754 23.7007 13.6413C23.7007 18.5285 19.8113 22.5044 15.0304 22.5044C10.2495 22.5044 6.36009 18.5285 6.36009 13.6413C6.36009 8.754 10.2495 4.77808 15.0304 4.77808Z" fill="white"/>
</svg>
