<svg width="22" height="22" viewBox="0 0 22 22" fill="none" xmlns="http://www.w3.org/2000/svg">
<path d="M12.7729 15.89L13.3439 15.069L12.6582 14.5921L12.0668 15.1819L12.7729 15.89ZM17.4731 19.159L18.1793 19.8671L19.027 19.0217L18.0441 18.3381L17.4731 19.159ZM16.4188 20.2105L15.7126 19.5024L15.7126 19.5024L16.4188 20.2105ZM13.7339 20.8872L13.4484 21.8455L13.7339 20.8872ZM5.89338 16.1202L6.5995 15.4121L5.89338 16.1202ZM1.11317 8.30139L2.07111 8.01442L2.0711 8.01441L1.11317 8.30139ZM1.79171 5.62398L1.08558 4.91589H1.08558L1.79171 5.62398ZM2.84608 4.57254L3.66554 3.99941L2.9831 3.02364L2.13995 3.86445L2.84608 4.57254ZM6.12424 9.25974L6.83036 9.96783L7.42502 9.37482L6.9437 8.68662L6.12424 9.25974ZM13.8082 11.9987L12.8107 11.9285L13.8082 11.9987ZM17.1291 11.9546L18.1266 12.0248V12.0248L17.1291 11.9546ZM20.9744 11.8586L21.9719 11.9288V11.9288L20.9744 11.8586ZM10.6349 19.4343L13.479 16.5981L12.0668 15.1819L9.22262 18.0182L10.6349 19.4343ZM12.2019 16.7109L16.9021 19.98L18.0441 18.3381L13.3439 15.069L12.2019 16.7109ZM16.767 18.451L15.7126 19.5024L17.1249 20.9186L18.1793 19.8671L16.767 18.451ZM15.7126 19.5024C15.2704 19.9434 14.6202 20.1077 14.0194 19.9288L13.4484 21.8455C14.751 22.2336 16.1626 21.8782 17.1249 20.9186L15.7126 19.5024ZM14.0194 19.9288C11.2811 19.113 8.8093 17.6158 6.5995 15.4121L5.18725 16.8283C7.61282 19.2471 10.368 20.9278 13.4484 21.8455L14.0194 19.9288ZM6.5995 15.4121C4.38969 13.2084 2.88878 10.7439 2.07111 8.01442L0.155226 8.58836C1.07582 11.6614 2.76172 14.4095 5.18725 16.8283L6.5995 15.4121ZM2.0711 8.01441C1.89263 7.41868 2.05589 6.77278 2.49783 6.33207L1.08558 4.91589C0.122918 5.87589 -0.23491 7.28609 0.155229 8.58837L2.0711 8.01441ZM2.49783 6.33207L3.5522 5.28062L2.13995 3.86445L1.08558 4.91589L2.49783 6.33207ZM2.02661 5.14566L5.30477 9.83287L6.9437 8.68662L3.66554 3.99941L2.02661 5.14566ZM5.41811 8.55165L2.57396 11.3879L3.98621 12.8041L6.83036 9.96783L5.41811 8.55165ZM12.8107 11.9285L12.773 12.4635L14.7681 12.6038L14.8057 12.0688L12.8107 11.9285ZM9.80461 9.05552C11.4907 8.86761 12.9288 10.2492 12.8107 11.9285L14.8057 12.0688C15.0119 9.13694 12.5036 6.74234 9.58309 7.06782L9.80461 9.05552ZM16.1316 11.8845L16.0636 12.8512L18.0586 12.9915L18.1266 12.0248L16.1316 11.8845ZM9.80467 5.83377C13.3499 5.43867 16.3806 8.34429 16.1316 11.8845L18.1266 12.0248C18.4637 7.23198 14.3628 3.3134 9.58315 3.84608L9.80467 5.83377ZM19.9769 11.7885L19.8737 13.2552L21.8688 13.3955L21.9719 11.9288L19.9769 11.7885ZM9.80455 2.05808C15.5026 1.42305 20.3774 6.09339 19.9769 11.7885L21.9719 11.9288C22.4606 4.98108 16.5155 -0.702217 9.58303 0.0703821L9.80455 2.05808Z" fill="#FBD846"/>
</svg>
