<svg width="14" height="14" viewBox="0 0 14 14" fill="none" xmlns="http://www.w3.org/2000/svg">
<path d="M7.49396 1.98807C7.50229 1.98807 7.51039 1.98802 7.51866 1.98802C8.72256 1.98802 9.85068 2.45348 10.6973 3.30006C11.5508 4.15364 12.0177 5.29137 12.0119 6.50364C12.0107 6.77646 12.2308 6.99869 12.5036 7C12.5044 7 12.5052 7 12.506 7C12.7777 7 12.9986 6.78036 12.9999 6.50834C13.007 5.03033 12.4373 3.64286 11.3959 2.60141C10.3626 1.56806 8.98666 1 7.51881 1C7.5098 1 7.50071 1.00002 7.49167 1.00005C7.21883 1.00136 6.99872 1.22359 7.00001 1.49641C7.00131 1.76843 7.22223 1.98807 7.49396 1.98807Z" fill="#474747"/>
<path d="M13.9986 11.2808C13.9791 10.7392 13.7535 10.2339 13.3635 9.85774C12.5997 9.12128 11.9598 8.69614 11.3497 8.51983C10.5089 8.27682 9.73023 8.49782 9.03529 9.17652C9.03425 9.17753 9.03318 9.17857 9.03214 9.17961L8.29206 9.9142C7.83238 9.65597 6.93878 9.08768 5.96143 8.1103L5.88947 8.03839C4.91854 7.06749 4.34665 6.16881 4.08644 5.70724L4.82032 4.96784C4.82136 4.9668 4.82237 4.96576 4.82341 4.96469C5.50211 4.26978 5.72308 3.49108 5.4801 2.65031C5.30379 2.04019 4.87867 1.40029 4.1422 0.636544C3.76608 0.246484 3.26072 0.0208976 2.71923 0.00137409C2.17785 -0.0181221 1.65741 0.170386 1.25412 0.532419L1.23842 0.546528C1.23112 0.553064 1.22401 0.559817 1.21709 0.566735C0.414281 1.3695 -0.00654035 2.49338 7.6852e-05 3.81685C0.0112878 6.06506 1.24693 8.63618 3.30537 10.6946C3.30709 10.6963 3.30879 10.698 3.31051 10.6997C3.69748 11.0861 4.13684 11.4685 4.6165 11.8363C4.85617 12.0201 5.19944 11.9747 5.38325 11.7351C5.56703 11.4954 5.52172 11.1521 5.28202 10.9683C4.83807 10.6279 4.43324 10.2756 4.07879 9.92115C4.07709 9.91945 4.0754 9.91776 4.07367 9.91609C2.21744 8.05774 1.10362 5.77607 1.0938 3.81136C1.08872 2.79209 1.39532 1.94134 1.98059 1.35003L1.98477 1.34625C2.3823 0.989471 2.98413 1.01118 3.35491 1.39569C4.7708 2.864 4.66826 3.55719 4.04264 4.19874L3.02889 5.22011C2.86992 5.38029 2.82565 5.62168 2.91747 5.82785C2.9432 5.88566 3.56576 7.26141 5.11629 8.81194L5.18826 8.88383C6.7386 10.4342 8.11435 11.0567 8.17215 11.0825C8.37833 11.1743 8.61972 11.13 8.7799 10.9711L9.80108 9.95749C10.4427 9.33178 11.1359 9.2291 12.6043 10.645C12.9888 11.0158 13.0105 11.6177 12.6538 12.0151L12.6499 12.0194C12.0634 12.5999 11.2218 12.9062 10.2136 12.9062C10.2053 12.9062 10.1969 12.9062 10.1886 12.9062C9.38277 12.9022 8.44961 12.6813 7.49009 12.2674C7.21277 12.1477 6.89096 12.2756 6.77133 12.5529C6.6517 12.8303 6.77956 13.1521 7.05688 13.2717C8.166 13.7501 9.21783 13.9951 10.1832 13.9999C10.1934 14 10.2036 14 10.2138 14C11.524 14 12.6367 13.5795 13.4332 12.7829C13.4402 12.776 13.4469 12.7689 13.4534 12.7616L13.4676 12.7458C13.8296 12.3426 14.0181 11.8223 13.9986 11.2808Z" fill="#474747"/>
<path d="M10.1488 3.85123C9.55227 3.25467 8.97971 3.09637 8.70452 3.02027C8.4084 2.93838 8.10213 3.112 8.02026 3.40805C7.93839 3.70408 8.112 4.01042 8.40807 4.09228C8.63309 4.15451 8.97312 4.24855 9.36232 4.63769C9.73697 5.01233 9.83649 5.35053 9.90237 5.57434L9.91041 5.60157C9.98198 5.8434 10.2034 6 10.4435 6C10.4957 6.00003 10.5489 5.99258 10.6016 5.97698C10.8961 5.8898 11.0642 5.58038 10.977 5.28588L10.9694 5.26036C10.8836 4.96889 10.724 4.42634 10.1488 3.85123Z" fill="#474747"/>
</svg>
