<svg width="34" height="35" viewBox="0 0 34 35" fill="none" xmlns="http://www.w3.org/2000/svg">
<path d="M19.5122 25.0139L20.0843 24.1937L19.3973 23.7145L18.8051 24.3068L19.5122 25.0139ZM26.9031 30.1686L27.6102 30.8757L28.4545 30.0314L27.4751 29.3484L26.9031 30.1686ZM25.2451 31.8265L24.538 31.1194L24.538 31.1194L25.2451 31.8265ZM21.0234 32.8935L20.7371 33.8517L21.0234 32.8935ZM8.69456 25.3769L9.40167 24.6698L8.69456 25.3769ZM1.17795 13.0481L2.13611 12.7618L2.1361 12.7618L1.17795 13.0481ZM2.24491 8.82631L1.53781 8.11921L1.53781 8.11921L2.24491 8.82631ZM3.90285 7.16838L4.72306 6.59632L4.04003 5.61699L3.19574 6.46127L3.90285 7.16838ZM9.05757 14.5592L9.76467 15.2663L10.3569 14.6741L9.87778 13.9872L9.05757 14.5592ZM21.1401 18.878L22.1377 18.948L22.1377 18.948L21.1401 18.878ZM26.3621 18.8086L27.3596 18.8786L27.3596 18.8786L26.3621 18.8086ZM32.4086 18.6572L33.4062 18.7272L33.4062 18.7272L32.4086 18.6572ZM15.7471 30.1932L20.2193 25.721L18.8051 24.3068L14.3328 28.779L15.7471 30.1932ZM18.9402 25.8341L26.331 30.9888L27.4751 29.3484L20.0843 24.1937L18.9402 25.8341ZM26.196 29.4615L24.538 31.1194L25.9522 32.5336L27.6102 30.8757L26.196 29.4615ZM24.538 31.1194C23.6935 31.9639 22.4539 32.2772 21.3096 31.9353L20.7371 33.8517C22.5856 34.4039 24.5881 33.8978 25.9522 32.5336L24.538 31.1194ZM21.3096 31.9353C16.9062 30.6199 12.9384 28.2065 9.40167 24.6698L7.98745 26.084C11.7396 29.8361 15.9909 32.4338 20.7371 33.8517L21.3096 31.9353ZM9.40167 24.6698C5.86498 21.1331 3.45156 17.1652 2.13611 12.7618L0.219789 13.3343C1.63766 18.0805 4.23532 22.3319 7.98745 26.084L9.40167 24.6698ZM2.1361 12.7618C1.79424 11.6175 2.10753 10.3779 2.95202 9.53342L1.53781 8.11921C0.17364 9.48337 -0.332451 11.4858 0.219792 13.3343L2.1361 12.7618ZM2.95202 9.53342L4.60995 7.87549L3.19574 6.46127L1.53781 8.11921L2.95202 9.53342ZM3.08263 7.74044L8.23735 15.1313L9.87778 13.9872L4.72306 6.59632L3.08263 7.74044ZM8.35046 13.8521L3.8782 18.3244L5.29241 19.7386L9.76467 15.2663L8.35046 13.8521ZM20.1426 18.8081L20.0834 19.6516L22.0785 19.7915L22.1377 18.948L20.1426 18.8081ZM14.7817 13.6639C17.7829 13.3285 20.3539 15.7955 20.1426 18.8081L22.1377 18.948C22.4364 14.6895 18.802 11.2022 14.5595 11.6763L14.7817 13.6639ZM25.3645 18.7386L25.2576 20.263L27.2527 20.4029L27.3596 18.8786L25.3645 18.7386ZM14.7817 8.58382C20.7063 7.92171 25.7816 12.7918 25.3645 18.7386L27.3596 18.8786C27.8641 11.6858 21.7254 5.79536 14.5596 6.59619L14.7817 8.58382ZM31.4111 18.5872L31.2488 20.9L33.2439 21.0399L33.4062 18.7272L31.4111 18.5872ZM14.7816 2.63025C24.0913 1.58983 32.0665 9.24254 31.4111 18.5872L33.4062 18.7272C34.149 8.13653 25.1104 -0.536519 14.5594 0.642621L14.7816 2.63025Z" fill="#FBD846"/>
</svg>
