<svg width="16" height="16" viewBox="0 0 16 16" fill="none" xmlns="http://www.w3.org/2000/svg">
<path d="M8.56453 2.27204C8.57404 2.27204 8.5833 2.27199 8.59276 2.27199C9.96864 2.27199 11.2579 2.80394 12.2254 3.77146C13.201 4.74698 13.7345 6.04724 13.7279 7.4327C13.7265 7.74449 13.978 7.99847 14.2898 7.99997C14.2908 7.99997 14.2916 7.99997 14.2926 7.99997C14.6031 7.99997 14.8556 7.74895 14.8571 7.43806C14.8651 5.74892 14.2141 4.16323 13.0239 2.973C11.8429 1.79204 10.2705 1.14282 8.59293 1.14282C8.58263 1.14282 8.57224 1.14285 8.56191 1.14288C8.25009 1.14437 7.99854 1.39835 8.00001 1.71014C8.0015 2.02103 8.25398 2.27204 8.56453 2.27204Z" fill="#2F2F2F"/>
<path d="M15.9984 12.8923C15.9761 12.2734 15.7183 11.6958 15.2725 11.266C14.3997 10.4243 13.6684 9.93845 12.9711 9.73695C12.0101 9.45923 11.1203 9.71179 10.326 10.4875C10.3249 10.4886 10.3236 10.4898 10.3224 10.491L9.47664 11.3305C8.95129 11.0354 7.93004 10.3859 6.81307 9.26892L6.73082 9.18673C5.62119 8.07713 4.9676 7.05006 4.67022 6.52256L5.50894 5.67753C5.51013 5.67634 5.51128 5.67515 5.51247 5.67393C6.28813 4.87974 6.54066 3.9898 6.26297 3.02892C6.06147 2.33164 5.57563 1.60033 4.73394 0.727479C4.30409 0.281696 3.72653 0.023883 3.10769 0.00157039C2.48897 -0.0207109 1.89418 0.194727 1.43328 0.608479L1.41534 0.624604C1.407 0.632073 1.39887 0.639791 1.39097 0.647698C0.473464 1.56514 -0.00747468 2.84958 8.78309e-05 4.36212C0.0129004 6.9315 1.42506 9.86992 3.77756 12.2224C3.77953 12.2244 3.78147 12.2263 3.78344 12.2282C4.22569 12.6698 4.72781 13.1068 5.276 13.5272C5.54991 13.7372 5.94222 13.6854 6.15229 13.4115C6.36232 13.1376 6.31054 12.7452 6.0366 12.5352C5.52922 12.1462 5.06657 11.7435 4.66147 11.3385C4.65953 11.3365 4.6576 11.3346 4.65563 11.3327C2.53422 9.20885 1.26128 6.60122 1.25006 4.35584C1.24425 3.19096 1.59465 2.21867 2.26353 1.54289L2.26831 1.53858C2.72262 1.13082 3.41044 1.15564 3.83419 1.59508C5.45235 3.27314 5.33516 4.06537 4.62016 4.79856L3.46159 5.96584C3.27991 6.1489 3.22931 6.42478 3.33425 6.66041C3.36366 6.72647 4.07516 8.29876 5.84719 10.0708L5.92944 10.153C7.70126 11.9248 9.27354 12.6363 9.3396 12.6657C9.57523 12.7707 9.8511 12.7201 10.0342 12.5384L11.2012 11.38C11.9345 10.6649 12.7268 10.5475 14.4049 12.1658C14.8444 12.5895 14.8692 13.2773 14.4615 13.7316L14.4571 13.7365C13.7868 14.3999 12.8249 14.75 11.6726 14.75C11.6632 14.75 11.6536 14.75 11.6441 14.7499C10.7232 14.7453 9.6567 14.4929 8.5601 14.0199C8.24316 13.8831 7.87538 14.0292 7.73866 14.3462C7.60194 14.6632 7.74807 15.0309 8.06501 15.1677C9.33257 15.7144 10.5347 15.9944 11.6379 15.9999C11.6496 16 11.6613 16 11.673 16C13.1703 16 14.442 15.5194 15.3523 14.6091C15.3602 14.6011 15.3679 14.593 15.3754 14.5847L15.3916 14.5667C15.8052 14.1058 16.0207 13.5112 15.9984 12.8923Z" fill="#2F2F2F"/>
<path d="M11.5986 4.4013C10.9168 3.71952 10.2625 3.53861 9.94799 3.45163C9.60957 3.35804 9.25954 3.55647 9.16598 3.89481C9.07242 4.23313 9.27082 4.58323 9.60918 4.67678C9.86635 4.7479 10.255 4.85538 10.6998 5.30012C11.1279 5.72827 11.2417 6.11479 11.317 6.37057L11.3261 6.40168C11.4079 6.67806 11.661 6.85704 11.9353 6.85704C11.9951 6.85707 12.0559 6.84855 12.116 6.83073C12.4526 6.7311 12.6447 6.37747 12.5451 6.0409L12.5365 6.01173C12.4384 5.67863 12.2559 5.05857 11.5986 4.4013Z" fill="#2F2F2F"/>
</svg>
