<svg width="14" height="14" viewBox="0 0 14 14" fill="none" xmlns="http://www.w3.org/2000/svg">
<path d="M7 2.1875C5.11533 2.1875 3.58203 3.7208 3.58203 5.60547C3.58203 7.49014 5.11533 9.02344 7 9.02344C7.31831 9.02344 7.63369 8.97961 7.9374 8.89314C8.2279 8.81048 8.39634 8.50795 8.31368 8.21745C8.23096 7.92698 7.92848 7.75849 7.63796 7.8412C7.43168 7.89991 7.21703 7.92969 7 7.92969C5.71843 7.92969 4.67578 6.88704 4.67578 5.60547C4.67578 4.32389 5.71843 3.28125 7 3.28125C8.28157 3.28125 9.32422 4.32389 9.32422 5.60547C9.32422 5.83349 9.29141 6.05855 9.22668 6.27438C9.13992 6.56368 9.30412 6.86853 9.59342 6.95529C9.88274 7.042 10.1875 6.87788 10.2743 6.58856C10.3696 6.27074 10.418 5.93999 10.418 5.60547C10.418 3.7208 8.88467 2.1875 7 2.1875Z" fill="#474747"/>
<path d="M10.9615 1.63964C9.90307 0.582313 8.49618 0 7.00007 0C5.50393 0 4.09707 0.582313 3.03859 1.63967C1.98022 2.69694 1.39641 4.10301 1.39468 5.60008C1.39575 6.68987 1.69845 7.71231 2.32002 8.72588C2.85828 9.60354 3.55755 10.3693 4.29785 11.1801C5.02374 11.975 5.7743 12.797 6.37373 13.7453C6.47395 13.9039 6.64846 14 6.83601 14H7.16413C7.35168 14 7.52619 13.9039 7.6264 13.7453C8.22583 12.797 8.97639 11.9749 9.70229 11.18C10.4426 10.3693 11.1419 9.60354 11.6801 8.72586C12.3017 7.71228 12.6044 6.68981 12.6055 5.59888C12.6038 4.10298 12.0199 2.69691 10.9615 1.63964ZM8.89461 10.4426C8.24919 11.1494 7.58509 11.8766 7.00007 12.7131C6.41508 11.8766 5.75095 11.1494 5.10553 10.4426C3.70228 8.9058 2.49035 7.57859 2.48843 5.60016C2.49128 3.11533 4.51521 1.09375 7.00007 1.09375C9.48493 1.09375 11.5089 3.11533 11.5117 5.59899C11.5098 7.57859 10.2979 8.90578 8.89461 10.4426Z" fill="#474747"/>
</svg>
