<svg width="16" height="16" viewBox="0 0 16 16" fill="none" xmlns="http://www.w3.org/2000/svg">
<path d="M8 2.5C5.84609 2.5 4.09375 4.25234 4.09375 6.40625C4.09375 8.56016 5.84609 10.3125 8 10.3125C8.36378 10.3125 8.72422 10.2624 9.07131 10.1636C9.40331 10.0691 9.59581 9.72337 9.50134 9.39137C9.40681 9.05941 9.06112 8.86684 8.72909 8.96138C8.49334 9.02847 8.24803 9.0625 8 9.0625C6.53534 9.0625 5.34375 7.87091 5.34375 6.40625C5.34375 4.94159 6.53534 3.75 8 3.75C9.46466 3.75 10.6562 4.94159 10.6562 6.40625C10.6562 6.66684 10.6187 6.92406 10.5448 7.17072C10.4456 7.50134 10.6333 7.84975 10.9639 7.94891C11.2946 8.048 11.6429 7.86044 11.7421 7.52978C11.851 7.16656 11.9062 6.78856 11.9062 6.40625C11.9062 4.25234 10.1539 2.5 8 2.5Z" fill="#2F2F2F"/>
<path d="M12.5276 1.87388C11.3179 0.6655 9.70999 0 8.00015 0C6.29027 0 4.68243 0.6655 3.47274 1.87391C2.26318 3.08222 1.59596 4.68916 1.59399 6.40009C1.59521 7.64556 1.94115 8.81406 2.65153 9.97244C3.26668 10.9755 4.06584 11.8507 4.9119 12.7772C5.74149 13.6857 6.59927 14.6251 7.28434 15.7089C7.39887 15.8901 7.5983 16 7.81265 16H8.18765C8.40199 16 8.60143 15.8901 8.71596 15.7089C9.40102 14.6251 10.2588 13.6857 11.0884 12.7772C11.9345 11.8507 12.7336 10.9755 13.3488 9.97241C14.0592 8.81403 14.4051 7.6455 14.4063 6.39872C14.4044 4.68913 13.7371 3.08219 12.5276 1.87388ZM10.1653 11.9343C9.42771 12.7421 8.66874 13.5733 8.00015 14.5293C7.33159 13.5733 6.57259 12.7421 5.83496 11.9343C4.23124 10.1781 2.84618 8.66125 2.84399 6.40019C2.84724 3.56037 5.16031 1.25 8.00015 1.25C10.84 1.25 13.1531 3.56037 13.1563 6.39884C13.1541 8.66125 11.7691 10.178 10.1653 11.9343Z" fill="#2F2F2F"/>
</svg>
