<svg width="16" height="16" viewBox="0 0 16 16" fill="none" xmlns="http://www.w3.org/2000/svg">
<path d="M7.75557 10.7256C7.29811 10.7256 6.92773 11.1068 6.92773 11.5643C6.92773 12.0109 7.2872 12.4031 7.75557 12.4031C8.22395 12.4031 8.59432 12.011 8.59432 11.5643C8.59432 11.1068 8.2131 10.7256 7.75557 10.7256Z" fill="#4E4E4E"/>
<path d="M7.89588 4.375C6.42534 4.375 5.75 5.24641 5.75 5.83462C5.75 6.25947 6.10944 6.45553 6.40356 6.45553C6.99175 6.45553 6.75212 5.61678 7.86319 5.61678C8.40784 5.61678 8.84356 5.85644 8.84356 6.3575C8.84356 6.94575 8.23356 7.2834 7.87409 7.5884C7.55822 7.86071 7.14428 8.30734 7.14428 9.24412C7.14428 9.81052 7.29675 9.97393 7.74338 9.97393C8.27713 9.97393 8.38603 9.73431 8.38603 9.52734C8.38603 8.9609 8.39697 8.63412 8.99606 8.16574C9.29016 7.937 10.2161 7.19628 10.2161 6.17234C10.2161 5.14841 9.29016 4.375 7.89588 4.375Z" fill="#4E4E4E"/>
<path d="M8 0C3.57863 0 0 3.57803 0 8V15.375C0 15.7202 0.279813 16 0.625 16H8C12.4213 16 16 12.422 16 8C16 3.57863 12.422 0 8 0ZM8 14.75H1.25V8C1.25 4.26947 4.26897 1.25 8 1.25C11.7305 1.25 14.75 4.26897 14.75 8C14.75 11.7305 11.731 14.75 8 14.75Z" fill="#4E4E4E"/>
</svg>
