<svg width="32" height="32" viewBox="0 0 32 32" fill="none" xmlns="http://www.w3.org/2000/svg">
<path d="M9.10794 27.9572H5.18827C4.71563 27.9572 4.43048 27.6934 4.30261 27.5361C4.08184 27.2645 3.99632 26.9111 4.06812 26.5663C5.21783 21.0438 10.0915 17.0108 15.7177 16.8799C15.8115 16.8834 15.9054 16.8858 15.9999 16.8858C16.0952 16.8858 16.19 16.8834 16.2845 16.8798C17.6603 16.9112 19.0042 17.1699 20.2833 17.6502C20.8557 17.8653 21.494 17.5754 21.709 17.0029C21.9239 16.4306 21.6342 15.7922 21.0617 15.5773C20.8784 15.5084 20.6939 15.444 20.5084 15.3829C22.3408 14.0083 23.5285 11.8189 23.5285 9.35718C23.5285 5.20595 20.1512 1.82861 15.9999 1.82861C11.8486 1.82861 8.47133 5.20595 8.47133 9.35718C8.47133 11.8211 9.66107 14.0123 11.4962 15.3866C9.81496 15.94 8.23728 16.8007 6.85657 17.9364C4.32497 20.0188 2.56478 22.9233 1.90033 26.1151C1.69208 27.1151 1.94152 28.1423 2.58471 28.9332C3.22464 29.7201 4.17363 30.1715 5.18827 30.1715H9.10794C9.71942 30.1715 10.2151 29.6758 10.2151 29.0643C10.2151 28.4528 9.71942 27.9572 9.10794 27.9572ZM10.6856 9.35718C10.6856 6.42685 13.0696 4.0429 15.9999 4.0429C18.9302 4.0429 21.3142 6.42685 21.3142 9.35718C21.3142 12.2007 19.0692 14.5296 16.2586 14.6651C16.1725 14.6636 16.0863 14.6622 15.9999 14.6622C15.9133 14.6622 15.8268 14.6635 15.7403 14.665C12.9301 14.5292 10.6856 12.2004 10.6856 9.35718Z" fill="#2F2F2F"/>
<path d="M29.3239 20.9049C28.85 19.8449 27.7825 19.158 26.6017 19.1553H23.149C23.1465 19.1553 23.1441 19.1553 23.1416 19.1553C21.8961 19.1553 20.8094 19.8893 20.3721 21.0267C20.3139 21.1781 20.2428 21.3687 20.1686 21.591H12.9198C12.6205 21.591 12.3339 21.7122 12.1254 21.9269L10.2236 23.8859C9.80467 24.3173 9.80678 25.0043 10.2283 25.4331L12.1658 27.4045C12.3739 27.6163 12.6584 27.7356 12.9554 27.7356H16.5536C17.1651 27.7356 17.6607 27.2399 17.6607 26.6284C17.6607 26.017 17.1651 25.5213 16.5536 25.5213H13.4196L12.5656 24.6523L13.388 23.8053H20.9991C21.5092 23.8053 21.9532 23.4568 22.0745 22.9614C22.164 22.5957 22.2764 22.244 22.4389 21.8213C22.5461 21.5425 22.8153 21.3696 23.1442 21.3696C23.145 21.3696 23.1457 21.3696 23.1464 21.3696H26.5991C26.9122 21.3703 27.1817 21.5386 27.3024 21.8087C27.5996 22.4736 27.9545 23.503 27.9572 24.6311C27.9598 25.7675 27.6053 26.8205 27.3073 27.5038C27.1872 27.7794 26.9155 27.9571 26.612 27.9571C26.6114 27.9571 26.6108 27.9571 26.6102 27.9571H23.1158C22.8095 27.9563 22.5226 27.7593 22.4019 27.4667C22.2724 27.1528 22.1602 26.7943 22.0589 26.3708C21.9165 25.7762 21.3189 25.4095 20.7245 25.5517C20.1298 25.6941 19.7631 26.2915 19.9054 26.8862C20.0339 27.4231 20.181 27.8891 20.355 28.311C20.8199 29.4382 21.9016 30.1685 23.1132 30.1713H26.6077C26.61 30.1713 26.6123 30.1713 26.6146 30.1713C27.7966 30.1712 28.8647 29.4721 29.3371 28.3887C29.7197 27.5113 30.175 26.1462 30.1714 24.6258C30.1679 23.1097 29.7086 21.7655 29.3239 20.9049Z" fill="#2F2F2F"/>
<path d="M25.6872 25.7429C26.2987 25.7429 26.7944 25.2472 26.7944 24.6357C26.7944 24.0242 26.2987 23.5286 25.6872 23.5286C25.0758 23.5286 24.5801 24.0242 24.5801 24.6357C24.5801 25.2472 25.0758 25.7429 25.6872 25.7429Z" fill="#2F2F2F"/>
</svg>
