<svg width="24" height="24" viewBox="0 0 24 24" fill="none" xmlns="http://www.w3.org/2000/svg">
<path d="M6.83105 20.9678H3.89129C3.53681 20.9678 3.32295 20.7699 3.22705 20.652C3.06147 20.4483 2.99733 20.1832 3.05118 19.9246C3.91346 15.7828 7.5687 12.758 11.7884 12.6598C11.8587 12.6624 11.9291 12.6642 12 12.6642C12.0715 12.6642 12.1426 12.6624 12.2135 12.6598C13.2453 12.6833 14.2532 12.8773 15.2126 13.2376C15.6419 13.3989 16.1206 13.1814 16.2818 12.7521C16.4431 12.3228 16.2257 11.8441 15.7964 11.6828C15.6589 11.6312 15.5205 11.5829 15.3814 11.537C16.7557 10.5061 17.6464 8.86402 17.6464 7.01777C17.6464 3.90434 15.1135 1.37134 12 1.37134C8.88656 1.37134 6.35359 3.90434 6.35359 7.01777C6.35359 8.86568 7.24589 10.5091 8.62225 11.5398C7.36131 11.9549 6.17805 12.6004 5.14252 13.4522C3.24382 15.014 1.92368 17.1924 1.42534 19.5862C1.26915 20.3362 1.45623 21.1066 1.93862 21.6998C2.41857 22.29 3.13031 22.6285 3.89129 22.6285H6.83105C7.28965 22.6285 7.6614 22.2567 7.6614 21.7981C7.6614 21.3395 7.28965 20.9678 6.83105 20.9678ZM8.01431 7.01777C8.01431 4.82002 9.80227 3.03205 12 3.03205C14.1978 3.03205 15.9857 4.82002 15.9857 7.01777C15.9857 9.15041 14.302 10.8971 12.1941 10.9987C12.1294 10.9975 12.0648 10.9965 12 10.9965C11.9351 10.9965 11.8702 10.9975 11.8053 10.9987C9.69769 10.8968 8.01431 9.15021 8.01431 7.01777Z" fill="#474747"/>
<path d="M21.993 15.6787C21.6375 14.8836 20.8369 14.3685 19.9513 14.3665H17.3617C17.3599 14.3665 17.3581 14.3665 17.3562 14.3665C16.4221 14.3665 15.6071 14.917 15.2791 15.77C15.2355 15.8836 15.1821 16.0265 15.1265 16.1932H9.68987C9.46538 16.1932 9.25049 16.2841 9.09409 16.4452L7.6677 17.9144C7.35354 18.238 7.35511 18.7532 7.67123 19.0748L9.12435 20.5534C9.28046 20.7122 9.49386 20.8017 9.71656 20.8017H12.4152C12.8738 20.8017 13.2456 20.4299 13.2456 19.9713C13.2456 19.5127 12.8738 19.141 12.4152 19.141H10.0647L9.4242 18.4892L10.041 17.854H15.7494C16.1319 17.854 16.4649 17.5926 16.5559 17.2211C16.6231 16.9467 16.7073 16.683 16.8292 16.366C16.9096 16.1569 17.1115 16.0272 17.3582 16.0272C17.3588 16.0272 17.3593 16.0272 17.3598 16.0272H19.9493C20.1842 16.0277 20.3863 16.1539 20.4768 16.3565C20.6997 16.8552 20.9659 17.6273 20.9679 18.4733C20.9699 19.3256 20.704 20.1154 20.4805 20.6278C20.3904 20.8345 20.1866 20.9678 19.9591 20.9678C19.9586 20.9678 19.9581 20.9678 19.9577 20.9678H17.3369C17.1072 20.9673 16.892 20.8194 16.8015 20.6C16.7043 20.3646 16.6202 20.0958 16.5442 19.7781C16.4374 19.3321 15.9892 19.0571 15.5434 19.1638C15.0974 19.2705 14.8223 19.7186 14.9291 20.1646C15.0255 20.5673 15.1358 20.9169 15.2663 21.2332C15.615 22.0787 16.4262 22.6263 17.335 22.6285H19.9558C19.9576 22.6285 19.9592 22.6285 19.961 22.6285C20.8475 22.6284 21.6486 22.1041 22.0029 21.2915C22.2898 20.6334 22.6313 19.6096 22.6286 18.4694C22.626 17.3322 22.2815 16.3241 21.993 15.6787Z" fill="#474747"/>
<path d="M19.2655 19.307C19.7241 19.307 20.0959 18.9352 20.0959 18.4766C20.0959 18.018 19.7241 17.6462 19.2655 17.6462C18.8069 17.6462 18.4352 18.018 18.4352 18.4766C18.4352 18.9352 18.8069 19.307 19.2655 19.307Z" fill="#2F2F2F"/>
</svg>
