<svg width="50" height="50" viewBox="0 0 50 50" fill="none" xmlns="http://www.w3.org/2000/svg">
<path d="M10.9375 18.3594H14.4567V10.3291C14.4567 4.63359 19.1881 0 25.0036 0C30.8191 0 35.5505 4.63359 35.5505 10.3291V18.3594H39.0625C42.2934 18.3594 44.9219 20.9879 44.9219 24.2188V44.1406C44.9219 47.3715 42.2934 50 39.0625 50H10.9375C7.70664 50 5.07812 47.3715 5.07812 44.1406V24.2188C5.07812 20.9879 7.70664 18.3594 10.9375 18.3594ZM31.6442 10.3291C31.6442 6.7875 28.6652 3.90625 25.0036 3.90625C21.342 3.90625 18.363 6.7875 18.363 10.3291V18.3594H31.6442V10.3291ZM8.98438 44.1406C8.98438 45.2176 9.86055 46.0938 10.9375 46.0938H39.0625C40.1395 46.0938 41.0156 45.2176 41.0156 44.1406V24.2188C41.0156 23.1418 40.1395 22.2656 39.0625 22.2656H10.9375C9.86055 22.2656 8.98438 23.1418 8.98438 24.2188V44.1406Z" fill="#FEDE00"/>
<path d="M25 27.9297C26.9956 27.9297 28.6133 29.5474 28.6133 31.543C28.6133 32.8172 27.9531 33.9365 26.9567 34.5799V38.8672C26.9567 39.9458 26.0823 40.8203 25.0036 40.8203C23.925 40.8203 23.0505 39.9458 23.0505 38.8672V34.5845C22.0501 33.9419 21.3867 32.8203 21.3867 31.543C21.3867 29.5474 23.0044 27.9297 25 27.9297Z" fill="#FEDE00"/>
</svg>
